<!-- Created with Inkscape (http://www.inkscape.org/) -->
<svg width="32" height="32" version="1.1" viewBox="0 0 32 32" xmlns="http://www.w3.org/2000/svg">
 <rect x="10.686" y=".39222" width="19.881" height="28.236" rx="3.0706" ry="3.0706" fill="#fff" stroke="#000" stroke-linejoin="round" stroke-width=".7579" style="paint-order:normal"/>
 <rect x="6.0611" y="1.8814" width="19.881" height="28.236" rx="3.0706" ry="3.0706" fill="#fff" stroke="#000" stroke-linejoin="round" stroke-width=".7579" style="paint-order:normal"/>
 <rect x="1.4324" y="3.3716" width="19.881" height="28.236" rx="3.0706" ry="3.0706" fill="#fff" stroke="#000" stroke-linejoin="round" stroke-width=".7579" style="paint-order:normal"/>
 <g transform="scale(.87257 1.146)" stroke="#f00" stroke-width="1.1512" aria-label="K">
  <path d="m18.374 7.7262q-0.68401 0.75021-1.5445 1.6769-0.86053 0.90466-1.8093 1.8755-0.92673 0.94879-1.8535 1.8755-0.92672 0.92673-1.7431 1.7211 0.94879 0.66195 2.0079 1.6328t2.0741 2.0741q1.015 1.1032 1.8976 2.2506 0.90466 1.1474 1.5004 2.1844h-2.5154q-0.66195-1.037-1.5225-2.0741-0.86053-1.0591-1.8314-2.0079-0.94879-0.97086-1.9417-1.7873-0.97086-0.8164-1.8976-1.3901v7.2594h-2.1403v-15.291h2.1403v6.7519q0.77227-0.72814 1.699-1.6328 0.92672-0.92673 1.8314-1.8535t1.699-1.7652q0.8164-0.86053 1.368-1.5004z" fill="#f00"/>
 </g>
</svg>
