<!-- Created with Inkscape (http://www.inkscape.org/) -->
<svg width="1155.5" height="611.21" version="1.1" viewBox="0 0 1155.5 611.21" xmlns="http://www.w3.org/2000/svg">
 <g transform="translate(-62.225 -54.396)">
  <g transform="matrix(5.0225 0 0 5.0225 -20.588 -202.39)">
   <g transform="translate(67.331 -33.144)" stroke-width="1.5">
    <rect x="-50.092" y="85.022" width="28.144" height="43.767" rx=".69787" ry=".73034" fill="#fff" stroke="#000" stroke-linejoin="round" stroke-width="1.5" style="paint-order:normal"/>
   </g>
   <rect x="18.891" y="53.6" width="24.892" height="40.406" fill="#f00"/>
  </g>
  <g fill="none" stroke="#f00" stroke-linejoin="round" stroke-width="5.0225">
   <rect x="568.28" y="63.478" width="141.35" height="219.82" rx="3.505" ry="3.6681" style="paint-order:normal"/>
   <rect x="736.21" y="63.478" width="141.35" height="219.82" rx="3.505" ry="3.6681" style="paint-order:normal"/>
   <rect x="904.14" y="63.478" width="141.35" height="219.82" rx="3.505" ry="3.6681" style="paint-order:normal"/>
   <rect x="1072.1" y="63.478" width="141.35" height="219.82" rx="3.505" ry="3.6681" style="paint-order:normal"/>
  </g>
  <g transform="matrix(5.0225 0 0 5.0225 -9.957 -197.08)">
   <g transform="translate(67.331 -33.144)" stroke-width="1.5">
    <rect x="-50.092" y="85.022" width="28.144" height="43.767" rx=".69787" ry=".73034" fill="#fff" stroke="#000" stroke-linejoin="round" stroke-width="1.5" style="paint-order:normal"/>
   </g>
   <rect x="18.891" y="53.6" width="24.892" height="40.406" fill="#f00"/>
  </g>
  <g transform="matrix(5.0225 0 0 5.0225 .67391 -191.76)">
   <g transform="translate(67.331 -33.144)" stroke-width="1.5">
    <rect x="-50.092" y="85.022" width="28.144" height="43.767" rx=".69787" ry=".73034" fill="#fff" stroke="#000" stroke-linejoin="round" stroke-width="1.5" style="paint-order:normal"/>
   </g>
   <rect x="18.891" y="53.6" width="24.892" height="40.406" fill="#f00"/>
  </g>
  <rect x="65.992" y="331.91" width="141.35" height="219.82" rx="3.505" ry="3.6681" fill="#fff" stroke="#000" stroke-linejoin="round" stroke-width="5.0225" style="paint-order:normal"/>
  <g transform="matrix(1.3289 0 0 1.3289 -262.19 -728.5)" style="shape-inside:url(#rect8845);white-space:pre" aria-label="♣8">
   <path d="m285.13 863.61q4.4583 0 6.5625 4.7292 0.27083 1.0833 0.33333 2.25 0 2.4375-2.5 5.7708l-1.25 1.25h0.0625q1.5417-0.58334 3.2917-0.58334h0.39583q4.9583 0 6.9583 4.2083 0.47917 1.375 0.47917 2.625 0 4.2708-4.3542 6.4375-0.83334 0.25-2.3125 0.375-5.0417 0-7.1458-5.7083h-0.0625v0.1875q0 7.1458 1.7083 9.4167v0.125h-4.3333l-0.125-0.125q1.7708-2.6667 1.7708-9.6042v-0.0625h-0.0625q-2.0833 5.7708-7.1875 5.7708-3.9792 0-6.1042-4.1875-0.52083-1.4167-0.52083-2.625 0-4.8542 5.125-6.5833 1.375-0.25 2.4375-0.25h0.1875q1.7917 0 3.4167 0.58334h0.0625v-0.0625q-1.75-1.4792-2.3542-2.9167-1.25-2.2917-1.25-3.9792v-0.29167q0-4.1875 4.4792-6.3542 1.4792-0.39583 2.2917-0.39583z"/>
   <path d="m317.8 879.92q-3 0-4.7292 1.6042-1.7083 1.6042-1.7083 4.4167t1.7083 4.4167q1.7292 1.6042 4.7292 1.6042t4.7292-1.6042q1.7292-1.625 1.7292-4.4167 0-2.8125-1.7292-4.4167-1.7083-1.6042-4.7292-1.6042zm-4.2083-1.7917q-2.7083-0.66667-4.2292-2.5208-1.5-1.8542-1.5-4.5208 0-3.7292 2.6458-5.8958 2.6667-2.1667 7.2917-2.1667 4.6458 0 7.2917 2.1667 2.6458 2.1667 2.6458 5.8958 0 2.6667-1.5208 4.5208-1.5 1.8542-4.1875 2.5208 3.0417 0.70834 4.7292 2.7708 1.7083 2.0625 1.7083 5.0417 0 4.5208-2.7708 6.9375-2.75 2.4167-7.8958 2.4167-5.1458 0-7.9167-2.4167-2.75-2.4167-2.75-6.9375 0-2.9792 1.7083-5.0417 1.7083-2.0625 4.75-2.7708zm-1.5417-6.6458q0 2.4167 1.5 3.7708 1.5208 1.3542 4.25 1.3542 2.7083 0 4.2292-1.3542 1.5417-1.3542 1.5417-3.7708 0-2.4167-1.5417-3.7708-1.5208-1.3542-4.2292-1.3542-2.7292 0-4.25 1.3542-1.5 1.3542-1.5 3.7708z"/>
  </g>
  <g transform="matrix(5.0225 0 0 5.0225 -261.49 -413.97)">
   <g transform="translate(148.73 63.486)">
    <rect x="-50.092" y="85.022" width="28.144" height="43.767" rx=".69787" ry=".73034" fill="#fff" stroke="#000" stroke-linejoin="round" style="paint-order:normal"/>
   </g>
   <rect x="100.29" y="150.23" width="24.892" height="40.406" fill="#f00"/>
  </g>
  <g transform="matrix(5.0225 0 0 5.0225 -93.563 -413.97)">
   <g transform="translate(148.73 63.486)">
    <rect x="-50.092" y="85.022" width="28.144" height="43.767" rx=".69787" ry=".73034" fill="#fff" stroke="#000" stroke-linejoin="round" style="paint-order:normal"/>
   </g>
   <rect x="100.29" y="150.23" width="24.892" height="40.406" fill="#f00"/>
  </g>
  <rect x="234.25" y="350.26" width="141.35" height="219.82" rx="3.505" ry="3.6681" fill="#fff" stroke="#000" stroke-linejoin="round" stroke-width="5.0225" style="paint-order:normal"/>
  <g transform="matrix(1.3289 0 0 1.3289 -92.421 -710.15)" fill="#f00" style="shape-inside:url(#rect16461);white-space:pre" aria-label="♦4">
   <path d="m285.11 863.61 10.479 13.604q1.4375 1.7708 1.4375 2.0417l-11.917 15.438q-0.25-0.16666-11.958-15.438 0-0.29166 2.3125-3.1667z"/>
   <path d="m320.36 867.25-10.625 16.604h10.625zm-1.1042-3.6667h5.2917v20.271h4.4375v3.5h-4.4375v7.3333h-4.1875v-7.3333h-14.042v-4.0625z"/>
  </g>
  <g transform="matrix(5.0225 0 0 5.0225 -93.237 -395.62)">
   <g transform="translate(148.73 63.486)">
    <rect x="-50.092" y="85.022" width="28.144" height="43.767" rx=".69787" ry=".73034" fill="#fff" stroke="#000" stroke-linejoin="round" style="paint-order:normal"/>
   </g>
   <rect x="100.29" y="150.23" width="24.892" height="40.406" fill="#f00"/>
  </g>
  <rect x="402.18" y="368.86" width="141.35" height="219.82" rx="3.505" ry="3.6681" fill="#fff" stroke="#000" stroke-linejoin="round" stroke-width="5.0225" style="paint-order:normal"/>
  <g transform="matrix(1.3289 0 0 1.3289 75.511 -691.55)" style="shape-inside:url(#rect29439);white-space:pre" aria-label="♠K">
   <path d="m284.74 863.61q1.9583 3.4792 6.4583 9.2292 4.9375 5.7917 5.0625 6.9792 0.8125 1.7708 0.8125 3.4375v0.83333q0 3.4792-3.375 5.4792-1.1042 0.45833-2.4375 0.45833-3.2083 0-5.1875-4.6042h-0.875v0.25q0 5.8958 1.7292 9.0208h-4.4792v-0.125q1.7708-3.1458 1.7708-9.0833l-0.0625-0.0625h-0.79167l-0.97917 1.8333q-1.7708 2.7708-4.4167 2.7708-3.8958 0-5.4792-4.3542l-0.1875-1.5208v-0.95833q0-3.8125 3.8958-8.0417 6.5625-8.0417 8.4167-11.479l0.0625-0.0625z"/>
   <path d="m308.01 863.59h4.2083v13.146l13.958-13.146h5.4167l-15.438 14.5 16.542 16.604h-5.5417l-14.938-14.979v14.979h-4.2083z"/>
  </g>
  <g transform="matrix(5.0225 0 0 5.0225 74.368 -413.97)">
   <g transform="translate(148.73 63.486)">
    <rect x="-50.092" y="85.022" width="28.144" height="43.767" rx=".69787" ry=".73034" fill="#fff" stroke="#000" stroke-linejoin="round" style="paint-order:normal"/>
   </g>
   <rect x="100.29" y="150.23" width="24.892" height="40.406" fill="#f00"/>
  </g>
  <g transform="matrix(5.0225 0 0 5.0225 74.695 -395.62)">
   <g transform="translate(148.73 63.486)">
    <rect x="-50.092" y="85.022" width="28.144" height="43.767" rx=".69787" ry=".73034" fill="#fff" stroke="#000" stroke-linejoin="round" style="paint-order:normal"/>
   </g>
   <rect x="100.29" y="150.23" width="24.892" height="40.406" fill="#f00"/>
  </g>
  <g transform="matrix(5.0225 0 0 5.0225 74.695 -377.02)">
   <g transform="translate(148.73 63.486)">
    <rect x="-50.092" y="85.022" width="28.144" height="43.767" rx=".69787" ry=".73034" fill="#fff" stroke="#000" stroke-linejoin="round" style="paint-order:normal"/>
   </g>
   <rect x="100.29" y="150.23" width="24.892" height="40.406" fill="#f00"/>
  </g>
  <rect x="570.11" y="387.46" width="141.35" height="219.82" rx="3.505" ry="3.6681" fill="#fff" stroke="#000" stroke-linejoin="round" stroke-width="5.0225" style="paint-order:normal"/>
  <g transform="matrix(1.3289 0 0 1.3289 241.93 -672.94)" fill="#f00" style="shape-inside:url(#rect17900-7);white-space:pre" aria-label="♥A">
   <path d="m276.47 863.61q4.2292 0 6.6458 4.8958 0.875 1.9375 0.91667 2.9583h0.0625q0.72916-3.375 2.6458-5.6042 2.25-2.25 5.0625-2.25 4.3542 0 6.9792 4.6667 0.66666 1.7292 0.66666 3.25 0 5.2083-4.3333 9.9375l-11.021 13.229h-0.125l-11.708-14.354q-3.5-4.2708-3.5-8.8125 0-4.3958 4.1458-6.9792 1.75-0.9375 3.5625-0.9375z"/>
   <path d="m317.8 867.73-5.7083 15.479h11.438zm-2.375-4.1458h4.7708l11.854 31.104h-4.375l-2.8333-7.9792h-14.021l-2.8333 7.9792h-4.4375z"/>
  </g>
  <g transform="matrix(5.0225 0 0 5.0225 242.3 -413.97)">
   <g transform="translate(148.73 63.486)">
    <rect x="-50.092" y="85.022" width="28.144" height="43.767" rx=".69787" ry=".73034" fill="#fff" stroke="#000" stroke-linejoin="round" style="paint-order:normal"/>
   </g>
   <rect x="100.29" y="150.23" width="24.892" height="40.406" fill="#f00"/>
  </g>
  <g transform="matrix(5.0225 0 0 5.0225 242.63 -395.62)">
   <g transform="translate(148.73 63.486)">
    <rect x="-50.092" y="85.022" width="28.144" height="43.767" rx=".69787" ry=".73034" fill="#fff" stroke="#000" stroke-linejoin="round" style="paint-order:normal"/>
   </g>
   <rect x="100.29" y="150.23" width="24.892" height="40.406" fill="#f00"/>
  </g>
  <g transform="matrix(5.0225 0 0 5.0225 242.63 -377.02)">
   <g transform="translate(148.73 63.486)">
    <rect x="-50.092" y="85.022" width="28.144" height="43.767" rx=".69787" ry=".73034" fill="#fff" stroke="#000" stroke-linejoin="round" style="paint-order:normal"/>
   </g>
   <rect x="100.29" y="150.23" width="24.892" height="40.406" fill="#f00"/>
  </g>
  <g transform="matrix(5.0225 0 0 5.0225 242.63 -358.42)">
   <g transform="translate(148.73 63.486)">
    <rect x="-50.092" y="85.022" width="28.144" height="43.767" rx=".69787" ry=".73034" fill="#fff" stroke="#000" stroke-linejoin="round" style="paint-order:normal"/>
   </g>
   <rect x="100.29" y="150.23" width="24.892" height="40.406" fill="#f00"/>
  </g>
  <rect x="738.05" y="406.07" width="141.35" height="219.82" rx="3.505" ry="3.6681" fill="#fff" stroke="#000" stroke-linejoin="round" stroke-width="5.0225" style="paint-order:normal"/>
  <g transform="matrix(1.3289 0 0 1.3289 409.87 -654.34)" style="shape-inside:url(#rect50271);white-space:pre" aria-label="♠2">
   <path d="m285.15 863.61q1.9583 3.4792 6.4583 9.2292 4.9375 5.7917 5.0625 6.9792 0.8125 1.7708 0.8125 3.4375v0.83333q0 3.4792-3.375 5.4792-1.1042 0.45833-2.4375 0.45833-3.2083 0-5.1875-4.6042h-0.875v0.25q0 5.8958 1.7292 9.0208h-4.4792v-0.125q1.7708-3.1458 1.7708-9.0833l-0.0625-0.0625h-0.79166l-0.97917 1.8333q-1.7708 2.7708-4.4167 2.7708-3.8958 0-5.4792-4.3542l-0.1875-1.5208v-0.95833q0-3.8125 3.8958-8.0417 6.5625-8.0417 8.4167-11.479l0.0625-0.0625z"/>
   <path d="m312.43 891.15h14.688v3.5417h-19.75v-3.5417q2.3958-2.4792 6.5208-6.6458 4.1458-4.1875 5.2083-5.3958 2.0208-2.2708 2.8125-3.8333 0.8125-1.5833 0.8125-3.1042 0-2.4792-1.75-4.0417-1.7292-1.5625-4.5208-1.5625-1.9792 0-4.1875 0.6875-2.1875 0.6875-4.6875 2.0833v-4.25q2.5417-1.0208 4.75-1.5417 2.2083-0.52084 4.0417-0.52084 4.8333 0 7.7083 2.4167t2.875 6.4583q0 1.9167-0.72916 3.6458-0.70834 1.7083-2.6042 4.0417-0.52084 0.60416-3.3125 3.5-2.7917 2.875-7.875 8.0625z"/>
  </g>
  <g transform="matrix(5.0225 0 0 5.0225 410.23 -413.97)">
   <g transform="translate(148.73 63.486)">
    <rect x="-50.092" y="85.022" width="28.144" height="43.767" rx=".69787" ry=".73034" fill="#fff" stroke="#000" stroke-linejoin="round" style="paint-order:normal"/>
   </g>
   <rect x="100.29" y="150.23" width="24.892" height="40.406" fill="#f00"/>
  </g>
  <g transform="matrix(5.0225 0 0 5.0225 410.56 -395.62)">
   <g transform="translate(148.73 63.486)">
    <rect x="-50.092" y="85.022" width="28.144" height="43.767" rx=".69787" ry=".73034" fill="#fff" stroke="#000" stroke-linejoin="round" style="paint-order:normal"/>
   </g>
   <rect x="100.29" y="150.23" width="24.892" height="40.406" fill="#f00"/>
  </g>
  <g transform="matrix(5.0225 0 0 5.0225 410.56 -377.02)">
   <g transform="translate(148.73 63.486)">
    <rect x="-50.092" y="85.022" width="28.144" height="43.767" rx=".69787" ry=".73034" fill="#fff" stroke="#000" stroke-linejoin="round" style="paint-order:normal"/>
   </g>
   <rect x="100.29" y="150.23" width="24.892" height="40.406" fill="#f00"/>
  </g>
  <g transform="matrix(5.0225 0 0 5.0225 410.56 -358.42)">
   <g transform="translate(148.73 63.486)">
    <rect x="-50.092" y="85.022" width="28.144" height="43.767" rx=".69787" ry=".73034" fill="#fff" stroke="#000" stroke-linejoin="round" style="paint-order:normal"/>
   </g>
   <rect x="100.29" y="150.23" width="24.892" height="40.406" fill="#f00"/>
  </g>
  <g transform="matrix(5.0225 0 0 5.0225 410.56 -339.81)">
   <g transform="translate(148.73 63.486)">
    <rect x="-50.092" y="85.022" width="28.144" height="43.767" rx=".69787" ry=".73034" fill="#fff" stroke="#000" stroke-linejoin="round" style="paint-order:normal"/>
   </g>
   <rect x="100.29" y="150.23" width="24.892" height="40.406" fill="#f00"/>
  </g>
  <rect x="905.98" y="424.67" width="141.35" height="219.82" rx="3.505" ry="3.6681" fill="#fff" stroke="#000" stroke-linejoin="round" stroke-width="5.0225" style="paint-order:normal"/>
  <g transform="matrix(1.3289 0 0 1.3289 577.8 -635.73)" fill="#f00" style="shape-inside:url(#rect58897);white-space:pre" aria-label="♥Q">
   <path d="m274.27 863.61q4.2292 0 6.6458 4.8958 0.875 1.9375 0.91667 2.9583h0.0625q0.72916-3.375 2.6458-5.6042 2.25-2.25 5.0625-2.25 4.3542 0 6.9792 4.6667 0.66667 1.7292 0.66667 3.25 0 5.2083-4.3333 9.9375l-11.021 13.229h-0.125l-11.708-14.354q-3.5-4.2708-3.5-8.8125 0-4.3958 4.1458-6.9792 1.75-0.9375 3.5625-0.9375z"/>
   <path d="m317.83 866.44q-4.5833 0-7.2917 3.4167-2.6875 3.4167-2.6875 9.3125 0 5.875 2.6875 9.2917 2.7083 3.4167 7.2917 3.4167 4.5833 0 7.25-3.4167 2.6875-3.4167 2.6875-9.2917 0-5.8958-2.6875-9.3125-2.6667-3.4167-7.25-3.4167zm5.8958 27.688 5.5417 6.0625h-5.0833l-4.6042-4.9792q-0.6875 0.0417-1.0625 0.0625-0.35416 0.0208-0.6875 0.0208-6.5625 0-10.5-4.375-3.9167-4.3958-3.9167-11.75 0-7.375 3.9167-11.75 3.9375-4.3958 10.5-4.3958 6.5417 0 10.458 4.3958 3.9167 4.375 3.9167 11.75 0 5.4167-2.1875 9.2708-2.1667 3.8542-6.2917 5.6875z"/>
  </g>
  <g transform="matrix(5.0225 0 0 5.0225 578.16 -413.97)">
   <g transform="translate(148.73 63.486)">
    <rect x="-50.092" y="85.022" width="28.144" height="43.767" rx=".69787" ry=".73034" fill="#fff" stroke="#000" stroke-linejoin="round" style="paint-order:normal"/>
   </g>
   <rect x="100.29" y="150.23" width="24.892" height="40.406" fill="#f00"/>
  </g>
  <g transform="matrix(5.0225 0 0 5.0225 578.49 -395.62)">
   <g transform="translate(148.73 63.486)">
    <rect x="-50.092" y="85.022" width="28.144" height="43.767" rx=".69787" ry=".73034" fill="#fff" stroke="#000" stroke-linejoin="round" style="paint-order:normal"/>
   </g>
   <rect x="100.29" y="150.23" width="24.892" height="40.406" fill="#f00"/>
  </g>
  <g transform="matrix(5.0225 0 0 5.0225 578.49 -377.02)">
   <g transform="translate(148.73 63.486)">
    <rect x="-50.092" y="85.022" width="28.144" height="43.767" rx=".69787" ry=".73034" fill="#fff" stroke="#000" stroke-linejoin="round" style="paint-order:normal"/>
   </g>
   <rect x="100.29" y="150.23" width="24.892" height="40.406" fill="#f00"/>
  </g>
  <g transform="matrix(5.0225 0 0 5.0225 578.49 -358.42)">
   <g transform="translate(148.73 63.486)">
    <rect x="-50.092" y="85.022" width="28.144" height="43.767" rx=".69787" ry=".73034" fill="#fff" stroke="#000" stroke-linejoin="round" style="paint-order:normal"/>
   </g>
   <rect x="100.29" y="150.23" width="24.892" height="40.406" fill="#f00"/>
  </g>
  <g transform="matrix(5.0225 0 0 5.0225 578.49 -339.81)">
   <g transform="translate(148.73 63.486)">
    <rect x="-50.092" y="85.022" width="28.144" height="43.767" rx=".69787" ry=".73034" fill="#fff" stroke="#000" stroke-linejoin="round" style="paint-order:normal"/>
   </g>
   <rect x="100.29" y="150.23" width="24.892" height="40.406" fill="#f00"/>
  </g>
  <g transform="matrix(5.0225 0 0 5.0225 578.49 -321.21)">
   <g transform="translate(148.73 63.486)">
    <rect x="-50.092" y="85.022" width="28.144" height="43.767" rx=".69787" ry=".73034" fill="#fff" stroke="#000" stroke-linejoin="round" style="paint-order:normal"/>
   </g>
   <rect x="100.29" y="150.23" width="24.892" height="40.406" fill="#f00"/>
  </g>
  <rect x="1073.9" y="443.28" width="141.35" height="219.82" rx="3.505" ry="3.6681" fill="#fff" stroke="#000" stroke-linejoin="round" stroke-width="5.0225" style="paint-order:normal"/>
  <g transform="matrix(1.3289 0 0 1.3289 745.73 -617.13)" fill="#f00" style="shape-inside:url(#rect71049);white-space:pre" aria-label="♥8">
   <path d="m277.49 863.61q4.2292 0 6.6458 4.8958 0.875 1.9375 0.91667 2.9583h0.0625q0.72917-3.375 2.6458-5.6042 2.25-2.25 5.0625-2.25 4.3542 0 6.9792 4.6667 0.66667 1.7292 0.66667 3.25 0 5.2083-4.3333 9.9375l-11.021 13.229h-0.125l-11.708-14.354q-3.5-4.2708-3.5-8.8125 0-4.3958 4.1458-6.9792 1.75-0.9375 3.5625-0.9375z"/>
   <path d="m317.8 879.92q-3 0-4.7292 1.6042-1.7083 1.6042-1.7083 4.4167t1.7083 4.4167q1.7292 1.6042 4.7292 1.6042t4.7292-1.6042q1.7292-1.625 1.7292-4.4167 0-2.8125-1.7292-4.4167-1.7083-1.6042-4.7292-1.6042zm-4.2083-1.7917q-2.7083-0.66667-4.2292-2.5208-1.5-1.8542-1.5-4.5208 0-3.7292 2.6458-5.8958 2.6667-2.1667 7.2917-2.1667 4.6458 0 7.2917 2.1667 2.6458 2.1667 2.6458 5.8958 0 2.6667-1.5208 4.5208-1.5 1.8542-4.1875 2.5208 3.0417 0.70834 4.7292 2.7708 1.7083 2.0625 1.7083 5.0417 0 4.5208-2.7708 6.9375-2.75 2.4167-7.8958 2.4167-5.1458 0-7.9167-2.4167-2.75-2.4167-2.75-6.9375 0-2.9792 1.7083-5.0417 1.7083-2.0625 4.75-2.7708zm-1.5417-6.6458q0 2.4167 1.5 3.7708 1.5208 1.3542 4.25 1.3542 2.7083 0 4.2292-1.3542 1.5417-1.3542 1.5417-3.7708 0-2.4167-1.5417-3.7708-1.5208-1.3542-4.2292-1.3542-2.7292 0-4.25 1.3542-1.5 1.3542-1.5 3.7708z"/>
  </g>
 </g>
</svg>
