<!-- Created with Inkscape (http://www.inkscape.org/) -->
<svg width="1246.5" height="579.74" version="1.1" viewBox="0 0 1246.5 579.74" xmlns="http://www.w3.org/2000/svg">
 <g transform="translate(-21.887 -70.131)">
  <g transform="matrix(4.9556 -.43356 .43356 4.9556 392.61 -157.06)">
   <g transform="translate(67.331 -33.144)" stroke-width="1.5">
    <rect x="-50.092" y="85.022" width="28.144" height="43.767" rx=".69787" ry=".73034" fill="#fff" stroke="#000" stroke-linejoin="round" stroke-width="1.5" style="paint-order:normal"/>
   </g>
   <rect x="18.891" y="53.6" width="24.892" height="40.406" fill="#f00"/>
  </g>
  <rect transform="rotate(-5)" x="459.92" y="470.55" width="141.35" height="219.82" rx="3.505" ry="3.6681" fill="#fff" stroke="#000" stroke-linejoin="round" stroke-width="5.0225" style="paint-order:normal"/>
  <g transform="matrix(1.3238 -.11582 .11582 1.3238 79.832 -599.1)" style="shape-inside:url(#rect50271);white-space:pre" aria-label="♠5">
   <path d="m285.15 863.61q1.9583 3.4792 6.4583 9.2292 4.9375 5.7917 5.0625 6.9792 0.8125 1.7708 0.8125 3.4375v0.83333q0 3.4792-3.375 5.4792-1.1042 0.45833-2.4375 0.45833-3.2083 0-5.1875-4.6042h-0.875v0.25q0 5.8958 1.7292 9.0208h-4.4792v-0.125q1.7708-3.1458 1.7708-9.0833l-0.0625-0.0625h-0.79166l-0.97917 1.8333q-1.7708 2.7708-4.4167 2.7708-3.8958 0-5.4792-4.3542l-0.1875-1.5208v-0.95833q0-3.8125 3.8958-8.0417 6.5625-8.0417 8.4167-11.479l0.0625-0.0625z"/>
   <path d="m308.84 863.59h16.521v3.5417h-12.667v7.625q0.91667-0.3125 1.8333-0.45833 0.91666-0.16667 1.8333-0.16667 5.2083 0 8.25 2.8542t3.0417 7.7292q0 5.0208-3.125 7.8125-3.125 2.7708-8.8125 2.7708-1.9583 0-4-0.33333-2.0208-0.33334-4.1875-1v-4.2292q1.875 1.0208 3.875 1.5208 2 0.5 4.2292 0.5 3.6042 0 5.7083-1.8958 2.1042-1.8958 2.1042-5.1458t-2.1042-5.1458q-2.1042-1.8958-5.7083-1.8958-1.6875 0-3.375 0.375-1.6667 0.375-3.4167 1.1667z"/>
  </g>
  <rect transform="rotate(5)" x="673.15" y="351.02" width="141.35" height="219.82" rx="3.505" ry="3.6681" fill="#fff" stroke="#000" stroke-linejoin="round" stroke-width="5.0225" style="paint-order:normal"/>
  <g transform="matrix(1.3238 .11582 -.11582 1.3238 405.49 -676.62)" style="shape-inside:url(#rect1709);white-space:pre" aria-label="♠7">
   <path d="m285.15 863.61q1.9583 3.4792 6.4583 9.2292 4.9375 5.7917 5.0625 6.9792 0.8125 1.7708 0.8125 3.4375v0.83333q0 3.4792-3.375 5.4792-1.1042 0.45833-2.4375 0.45833-3.2083 0-5.1875-4.6042h-0.875v0.25q0 5.8958 1.7292 9.0208h-4.4792v-0.125q1.7708-3.1458 1.7708-9.0833l-0.0625-0.0625h-0.79166l-0.97917 1.8333q-1.7708 2.7708-4.4167 2.7708-3.8958 0-5.4792-4.3542l-0.1875-1.5208v-0.95833q0-3.8125 3.8958-8.0417 6.5625-8.0417 8.4167-11.479l0.0625-0.0625z"/>
   <path d="m307.74 863.59h20v1.7917l-11.292 29.313h-4.3958l10.625-27.563h-14.938z"/>
  </g>
  <rect transform="rotate(5)" x="643.87" y="16.294" width="141.35" height="219.82" rx="3.505" ry="3.6681" fill="#fff" stroke="#000" stroke-linejoin="round" stroke-width="5.0225" style="paint-order:normal"/>
  <g transform="matrix(1.3238 .11582 -.11582 1.3238 405.49 -1012.6)" fill="#f00" style="shape-inside:url(#rect8233);white-space:pre" aria-label="♥5">
   <path d="m277.49 863.61q4.2292 0 6.6458 4.8958 0.875 1.9375 0.91667 2.9583h0.0625q0.72917-3.375 2.6458-5.6042 2.25-2.25 5.0625-2.25 4.3542 0 6.9792 4.6667 0.66667 1.7292 0.66667 3.25 0 5.2083-4.3333 9.9375l-11.021 13.229h-0.125l-11.708-14.354q-3.5-4.2708-3.5-8.8125 0-4.3958 4.1458-6.9792 1.75-0.9375 3.5625-0.9375z"/>
   <path d="m308.84 863.59h16.521v3.5417h-12.667v7.625q0.91667-0.3125 1.8333-0.45833 0.91666-0.16667 1.8333-0.16667 5.2083 0 8.25 2.8542t3.0417 7.7292q0 5.0208-3.125 7.8125-3.125 2.7708-8.8125 2.7708-1.9583 0-4-0.33333-2.0208-0.33334-4.1875-1v-4.2292q1.875 1.0208 3.875 1.5208 2 0.5 4.2292 0.5 3.6042 0 5.7083-1.8958 2.1042-1.8958 2.1042-5.1458t-2.1042-5.1458q-2.1042-1.8958-5.7083-1.8958-1.6875 0-3.375 0.375-1.6667 0.375-3.4167 1.1667z"/>
  </g>
  <g transform="matrix(5.0225 0 0 5.0225 -60.926 -184.9)">
   <g transform="translate(67.331 -33.144)" stroke-width="1.5">
    <rect x="-50.092" y="85.022" width="28.144" height="43.767" rx=".69787" ry=".73034" fill="#fff" stroke="#000" stroke-linejoin="round" stroke-width="1.5" style="paint-order:normal"/>
   </g>
   <rect x="18.891" y="53.6" width="24.892" height="40.406" fill="#f00"/>
  </g>
  <g transform="matrix(5.0225 0 0 5.0225 -50.295 -179.59)">
   <g transform="translate(67.331 -33.144)" stroke-width="1.5">
    <rect x="-50.092" y="85.022" width="28.144" height="43.767" rx=".69787" ry=".73034" fill="#fff" stroke="#000" stroke-linejoin="round" stroke-width="1.5" style="paint-order:normal"/>
   </g>
   <rect x="18.891" y="53.6" width="24.892" height="40.406" fill="#f00"/>
  </g>
  <g transform="matrix(5.0225 0 0 5.0225 -39.664 -174.27)">
   <g transform="translate(67.331 -33.144)" stroke-width="1.5">
    <rect x="-50.092" y="85.022" width="28.144" height="43.767" rx=".69787" ry=".73034" fill="#fff" stroke="#000" stroke-linejoin="round" stroke-width="1.5" style="paint-order:normal"/>
   </g>
   <rect x="18.891" y="53.6" width="24.892" height="40.406" fill="#f00"/>
  </g>
 </g>
</svg>
