<!-- Created with Inkscape (http://www.inkscape.org/) -->
<svg width="680.63" height="603.68" version="1.1" viewBox="0 0 680.63 603.68" xmlns="http://www.w3.org/2000/svg">
 <g transform="translate(-299.05 -58.065)">
  <g transform="matrix(-2.4144 .21124 -.21124 -2.4144 862.79 287.03)">
   <g transform="translate(67.331 -33.144)" stroke-width="1.5">
    <rect x="-50.092" y="85.022" width="28.144" height="43.767" rx=".69787" ry=".73034" fill="#fff" stroke="#000" stroke-linejoin="round" stroke-width="1.5" style="paint-order:normal"/>
   </g>
   <rect x="18.891" y="53.6" width="24.892" height="40.406" fill="#f00"/>
  </g>
  <g transform="matrix(-2.4213 .10572 -.10572 -2.4213 789.48 295.15)">
   <g transform="translate(67.331 -33.144)" stroke-width="1.5">
    <rect x="-50.092" y="85.022" width="28.144" height="43.767" rx=".69787" ry=".73034" fill="#fff" stroke="#000" stroke-linejoin="round" stroke-width="1.5" style="paint-order:normal"/>
   </g>
   <rect x="18.891" y="53.6" width="24.892" height="40.406" fill="#f00"/>
  </g>
  <g transform="matrix(-2.4236 0 0 -2.4236 715.89 300.07)">
   <g transform="translate(67.331 -33.144)" stroke-width="1.5">
    <rect x="-50.092" y="85.022" width="28.144" height="43.767" rx=".69787" ry=".73034" fill="#fff" stroke="#000" stroke-linejoin="round" stroke-width="1.5" style="paint-order:normal"/>
   </g>
   <rect x="18.891" y="53.6" width="24.892" height="40.406" fill="#f00"/>
  </g>
  <g transform="matrix(-2.4213 -.10572 .10572 -2.4213 642.15 301.77)">
   <g transform="translate(67.331 -33.144)" stroke-width="1.5">
    <rect x="-50.092" y="85.022" width="28.144" height="43.767" rx=".69787" ry=".73034" fill="#fff" stroke="#000" stroke-linejoin="round" stroke-width="1.5" style="paint-order:normal"/>
   </g>
   <rect x="18.891" y="53.6" width="24.892" height="40.406" fill="#f00"/>
  </g>
  <g transform="matrix(-2.4144 -.21124 .21124 -2.4144 568.41 300.26)">
   <g transform="translate(67.331 -33.144)" stroke-width="1.5">
    <rect x="-50.092" y="85.022" width="28.144" height="43.767" rx=".69787" ry=".73034" fill="#fff" stroke="#000" stroke-linejoin="round" stroke-width="1.5" style="paint-order:normal"/>
   </g>
   <rect x="18.891" y="53.6" width="24.892" height="40.406" fill="#f00"/>
  </g>
  <g transform="matrix(.21124 2.4144 -2.4144 .21124 528.01 137.21)">
   <g transform="translate(67.331 -33.144)" stroke-width="1.5">
    <rect x="-50.092" y="85.022" width="28.144" height="43.767" rx=".69787" ry=".73034" fill="#fff" stroke="#000" stroke-linejoin="round" stroke-width="1.5" style="paint-order:normal"/>
   </g>
   <rect x="18.891" y="53.6" width="24.892" height="40.406" fill="#f00"/>
  </g>
  <g transform="matrix(.10572 2.4213 -2.4213 .10572 536.13 210.52)">
   <g transform="translate(67.331 -33.144)" stroke-width="1.5">
    <rect x="-50.092" y="85.022" width="28.144" height="43.767" rx=".69787" ry=".73034" fill="#fff" stroke="#000" stroke-linejoin="round" stroke-width="1.5" style="paint-order:normal"/>
   </g>
   <rect x="18.891" y="53.6" width="24.892" height="40.406" fill="#f00"/>
  </g>
  <g transform="matrix(0 2.4236 -2.4236 0 541.05 284.11)">
   <g transform="translate(67.331 -33.144)" stroke-width="1.5">
    <rect x="-50.092" y="85.022" width="28.144" height="43.767" rx=".69787" ry=".73034" fill="#fff" stroke="#000" stroke-linejoin="round" stroke-width="1.5" style="paint-order:normal"/>
   </g>
   <rect x="18.891" y="53.6" width="24.892" height="40.406" fill="#f00"/>
  </g>
  <g transform="matrix(-.10572 2.4213 -2.4213 -.10572 542.75 357.85)">
   <g transform="translate(67.331 -33.144)" stroke-width="1.5">
    <rect x="-50.092" y="85.022" width="28.144" height="43.767" rx=".69787" ry=".73034" fill="#fff" stroke="#000" stroke-linejoin="round" stroke-width="1.5" style="paint-order:normal"/>
   </g>
   <rect x="18.891" y="53.6" width="24.892" height="40.406" fill="#f00"/>
  </g>
  <g transform="matrix(-.21124 2.4144 -2.4144 -.21124 541.24 431.59)">
   <g transform="translate(67.331 -33.144)" stroke-width="1.5">
    <rect x="-50.092" y="85.022" width="28.144" height="43.767" rx=".69787" ry=".73034" fill="#fff" stroke="#000" stroke-linejoin="round" stroke-width="1.5" style="paint-order:normal"/>
   </g>
   <rect x="18.891" y="53.6" width="24.892" height="40.406" fill="#f00"/>
  </g>
  <g transform="matrix(-.21124 -2.4144 2.4144 -.21124 750.72 582.79)">
   <g transform="translate(67.331 -33.144)" stroke-width="1.5">
    <rect x="-50.092" y="85.022" width="28.144" height="43.767" rx=".69787" ry=".73034" fill="#fff" stroke="#000" stroke-linejoin="round" stroke-width="1.5" style="paint-order:normal"/>
   </g>
   <rect x="18.891" y="53.6" width="24.892" height="40.406" fill="#f00"/>
  </g>
  <g transform="matrix(-.10572 -2.4213 2.4213 -.10572 742.59 509.48)">
   <g transform="translate(67.331 -33.144)" stroke-width="1.5">
    <rect x="-50.092" y="85.022" width="28.144" height="43.767" rx=".69787" ry=".73034" fill="#fff" stroke="#000" stroke-linejoin="round" stroke-width="1.5" style="paint-order:normal"/>
   </g>
   <rect x="18.891" y="53.6" width="24.892" height="40.406" fill="#f00"/>
  </g>
  <g transform="matrix(0 -2.4236 2.4236 0 737.68 435.89)">
   <g transform="translate(67.331 -33.144)" stroke-width="1.5">
    <rect x="-50.092" y="85.022" width="28.144" height="43.767" rx=".69787" ry=".73034" fill="#fff" stroke="#000" stroke-linejoin="round" stroke-width="1.5" style="paint-order:normal"/>
   </g>
   <rect x="18.891" y="53.6" width="24.892" height="40.406" fill="#f00"/>
  </g>
  <g transform="matrix(.10572 -2.4213 2.4213 .10572 735.97 362.15)">
   <g transform="translate(67.331 -33.144)" stroke-width="1.5">
    <rect x="-50.092" y="85.022" width="28.144" height="43.767" rx=".69787" ry=".73034" fill="#fff" stroke="#000" stroke-linejoin="round" stroke-width="1.5" style="paint-order:normal"/>
   </g>
   <rect x="18.891" y="53.6" width="24.892" height="40.406" fill="#f00"/>
  </g>
  <g transform="matrix(.21124 -2.4144 2.4144 .21124 737.49 288.41)">
   <g transform="translate(67.331 -33.144)" stroke-width="1.5">
    <rect x="-50.092" y="85.022" width="28.144" height="43.767" rx=".69787" ry=".73034" fill="#fff" stroke="#000" stroke-linejoin="round" stroke-width="1.5" style="paint-order:normal"/>
   </g>
   <rect x="18.891" y="53.6" width="24.892" height="40.406" fill="#f00"/>
  </g>
  <rect transform="rotate(-5)" x="419.64" y="593.84" width="68.212" height="106.08" rx="1.6914" ry="1.7701" fill="#fff" stroke="#000" stroke-linejoin="round" stroke-width="2.4236" style="paint-order:normal"/>
  <g transform="matrix(.63882 -.055889 .055889 .63882 267.43 59.043)" fill="#f00" style="shape-inside:url(#rect1514);white-space:pre" aria-label="♥7">
   <path d="m277.49 863.61q4.2292 0 6.6458 4.8958 0.875 1.9375 0.91667 2.9583h0.0625q0.72917-3.375 2.6458-5.6042 2.25-2.25 5.0625-2.25 4.3542 0 6.9792 4.6667 0.66667 1.7292 0.66667 3.25 0 5.2083-4.3333 9.9375l-11.021 13.229h-0.125l-11.708-14.354q-3.5-4.2708-3.5-8.8125 0-4.3958 4.1458-6.9792 1.75-0.9375 3.5625-0.9375z"/>
   <path d="m307.74 863.59h20v1.7917l-11.292 29.313h-4.3958l10.625-27.563h-14.938z"/>
  </g>
  <rect transform="rotate(-2.5)" x="513.29" y="571.99" width="68.212" height="106.08" rx="1.6914" ry="1.7701" fill="#fff" stroke="#000" stroke-linejoin="round" stroke-width="2.4236" style="paint-order:normal"/>
  <g transform="matrix(.64065 -.027971 .027971 .64065 357.21 44.743)" style="shape-inside:url(#rect1506);white-space:pre" aria-label="♠3">
   <path d="m285.15 863.61q1.9583 3.4792 6.4583 9.2292 4.9375 5.7917 5.0625 6.9792 0.8125 1.7708 0.8125 3.4375v0.83333q0 3.4792-3.375 5.4792-1.1042 0.45833-2.4375 0.45833-3.2083 0-5.1875-4.6042h-0.875v0.25q0 5.8958 1.7292 9.0208h-4.4792v-0.125q1.7708-3.1458 1.7708-9.0833l-0.0625-0.0625h-0.79166l-0.97917 1.8333q-1.7708 2.7708-4.4167 2.7708-3.8958 0-5.4792-4.3542l-0.1875-1.5208v-0.95833q0-3.8125 3.8958-8.0417 6.5625-8.0417 8.4167-11.479l0.0625-0.0625z"/>
   <path d="m321.55 877.92q3.0208 0.64583 4.7083 2.6875 1.7083 2.0417 1.7083 5.0417 0 4.6042-3.1667 7.125-3.1667 2.5208-9 2.5208-1.9583 0-4.0417-0.39583-2.0625-0.375-4.2708-1.1458v-4.0625q1.75 1.0208 3.8333 1.5417 2.0833 0.52083 4.3542 0.52083 3.9583 0 6.0208-1.5625 2.0833-1.5625 2.0833-4.5417 0-2.75-1.9375-4.2917-1.9167-1.5625-5.3542-1.5625h-3.625v-3.4583h3.7917q3.1042 0 4.75-1.2292 1.6458-1.25 1.6458-3.5833 0-2.3958-1.7083-3.6667-1.6875-1.2917-4.8542-1.2917-1.7292 0-3.7083 0.375-1.9792 0.375-4.3542 1.1667v-3.75q2.3958-0.66667 4.4792-1 2.1042-0.33334 3.9583-0.33334 4.7917 0 7.5833 2.1875 2.7917 2.1667 2.7917 5.875 0 2.5833-1.4792 4.375-1.4792 1.7708-4.2083 2.4583z"/>
  </g>
  <rect x="605.89" y="546.08" width="68.212" height="106.08" rx="1.6914" ry="1.7701" fill="#fff" stroke="#000" stroke-linejoin="round" stroke-width="2.4236" style="paint-order:normal"/>
  <g transform="matrix(.64126 0 0 .64126 447.53 34.372)" fill="#f00" style="shape-inside:url(#rect8845-7);white-space:pre" aria-label="♦K">
   <path d="m284.7 863.61 10.479 13.604q1.4375 1.7708 1.4375 2.0417l-11.917 15.438q-0.25-0.16666-11.958-15.438 0-0.29166 2.3125-3.1667z"/>
   <path d="m308.01 863.59h4.2083v13.146l13.958-13.146h5.4167l-15.438 14.5 16.542 16.604h-5.5417l-14.938-14.979v14.979h-4.2083z"/>
  </g>
  <rect transform="rotate(2.5)" x="697.28" y="516.16" width="68.212" height="106.08" rx="1.6914" ry="1.7701" fill="#fff" stroke="#000" stroke-linejoin="round" stroke-width="2.4236" style="paint-order:normal"/>
  <g transform="matrix(.64065 .027971 -.027971 .64065 538.21 27.952)" style="shape-inside:url(#rect1490);white-space:pre" aria-label="♣5">
   <path d="m285.13 863.61q4.4583 0 6.5625 4.7292 0.27083 1.0833 0.33333 2.25 0 2.4375-2.5 5.7708l-1.25 1.25h0.0625q1.5417-0.58334 3.2917-0.58334h0.39583q4.9583 0 6.9583 4.2083 0.47917 1.375 0.47917 2.625 0 4.2708-4.3542 6.4375-0.83334 0.25-2.3125 0.375-5.0417 0-7.1458-5.7083h-0.0625v0.1875q0 7.1458 1.7083 9.4167v0.125h-4.3333l-0.125-0.125q1.7708-2.6667 1.7708-9.6042v-0.0625h-0.0625q-2.0833 5.7708-7.1875 5.7708-3.9792 0-6.1042-4.1875-0.52083-1.4167-0.52083-2.625 0-4.8542 5.125-6.5833 1.375-0.25 2.4375-0.25h0.1875q1.7917 0 3.4167 0.58334h0.0625v-0.0625q-1.75-1.4792-2.3542-2.9167-1.25-2.2917-1.25-3.9792v-0.29167q0-4.1875 4.4792-6.3542 1.4792-0.39583 2.2917-0.39583z"/>
   <path d="m308.84 863.59h16.521v3.5417h-12.667v7.625q0.91667-0.3125 1.8333-0.45833 0.91666-0.16667 1.8333-0.16667 5.2083 0 8.25 2.8542t3.0417 7.7292q0 5.0208-3.125 7.8125-3.125 2.7708-8.8125 2.7708-1.9583 0-4-0.33333-2.0208-0.33334-4.1875-1v-4.2292q1.875 1.0208 3.875 1.5208 2 0.5 4.2292 0.5 3.6042 0 5.7083-1.8958 2.1042-1.8958 2.1042-5.1458t-2.1042-5.1458q-2.1042-1.8958-5.7083-1.8958-1.6875 0-3.375 0.375-1.6667 0.375-3.4167 1.1667z"/>
  </g>
  <rect transform="rotate(5)" x="787.28" y="482.28" width="68.212" height="106.08" rx="1.6914" ry="1.7701" fill="#fff" stroke="#000" stroke-linejoin="round" stroke-width="2.4236" style="paint-order:normal"/>
  <g transform="matrix(.63882 .055889 -.055889 .63882 629.09 25.493)" style="shape-inside:url(#rect1498);white-space:pre" aria-label="♠5">
   <path d="m285.15 863.61q1.9583 3.4792 6.4583 9.2292 4.9375 5.7917 5.0625 6.9792 0.8125 1.7708 0.8125 3.4375v0.83333q0 3.4792-3.375 5.4792-1.1042 0.45833-2.4375 0.45833-3.2083 0-5.1875-4.6042h-0.875v0.25q0 5.8958 1.7292 9.0208h-4.4792v-0.125q1.7708-3.1458 1.7708-9.0833l-0.0625-0.0625h-0.79166l-0.97917 1.8333q-1.7708 2.7708-4.4167 2.7708-3.8958 0-5.4792-4.3542l-0.1875-1.5208v-0.95833q0-3.8125 3.8958-8.0417 6.5625-8.0417 8.4167-11.479l0.0625-0.0625z"/>
   <path d="m308.84 863.59h16.521v3.5417h-12.667v7.625q0.91667-0.3125 1.8333-0.45833 0.91666-0.16667 1.8333-0.16667 5.2083 0 8.25 2.8542t3.0417 7.7292q0 5.0208-3.125 7.8125-3.125 2.7708-8.8125 2.7708-1.9583 0-4-0.33333-2.0208-0.33334-4.1875-1v-4.2292q1.875 1.0208 3.875 1.5208 2 0.5 4.2292 0.5 3.6042 0 5.7083-1.8958 2.1042-1.8958 2.1042-5.1458t-2.1042-5.1458q-2.1042-1.8958-5.7083-1.8958-1.6875 0-3.375 0.375-1.6667 0.375-3.4167 1.1667z"/>
  </g>
  <g transform="matrix(2.3498 0 0 2.4131 560.01 179.5)">
   <g transform="translate(67.331 -33.144)" stroke-width="1.5">
    <rect x="-50.092" y="85.022" width="28.144" height="43.767" rx=".69787" ry=".73034" fill="#fff" stroke="#000" stroke-linejoin="round" stroke-width="1.5" style="paint-order:normal"/>
   </g>
   <rect x="18.891" y="53.6" width="24.892" height="40.406" fill="#f00"/>
  </g>
  <g transform="matrix(2.3498 0 0 2.4131 564.64 182.82)">
   <g transform="translate(67.331 -33.144)" stroke-width="1.5">
    <rect x="-50.092" y="85.022" width="28.144" height="43.767" rx=".69787" ry=".73034" fill="#fff" stroke="#000" stroke-linejoin="round" stroke-width="1.5" style="paint-order:normal"/>
   </g>
   <rect x="18.891" y="53.6" width="24.892" height="40.406" fill="#f00"/>
  </g>
  <g transform="matrix(2.4071 0 0 2.3865 568.93 186.89)">
   <g transform="translate(67.331 -33.144)" stroke-width="1.5">
    <rect x="-50.092" y="85.022" width="28.144" height="43.767" rx=".69787" ry=".73034" fill="#fff" stroke="#000" stroke-linejoin="round" stroke-width="1.5" style="paint-order:normal"/>
   </g>
   <rect x="18.891" y="53.6" width="24.892" height="40.406" fill="#f00"/>
  </g>
 </g>
</svg>
