<!-- Created with Inkscape (http://www.inkscape.org/) -->
<svg width="820.63" height="743.68" version="1.1" viewBox="0 0 820.63 743.68" xmlns="http://www.w3.org/2000/svg">
 <g transform="translate(-249.05 -8.0654)">
  <g transform="matrix(-2.3383 -.63745 .63745 -2.3383 638.22 558.54)">
   <g transform="translate(67.331 -33.144)" stroke-width="1.5">
    <rect x="-50.092" y="85.022" width="28.144" height="43.767" rx=".69787" ry=".73034" fill="#fff" stroke="#000" stroke-linejoin="round" stroke-width="1.5" style="paint-order:normal"/>
   </g>
   <rect x="18.891" y="53.6" width="24.892" height="40.406" fill="#f00"/>
  </g>
  <g transform="matrix(-1.0661 2.1766 -2.1766 -1.0661 904.89 365.86)">
   <g transform="translate(67.331 -33.144)" stroke-width="1.5">
    <rect x="-50.092" y="85.022" width="28.144" height="43.767" rx=".69787" ry=".73034" fill="#fff" stroke="#000" stroke-linejoin="round" stroke-width="1.5" style="paint-order:normal"/>
   </g>
   <rect x="18.891" y="53.6" width="24.892" height="40.406" fill="#f00"/>
  </g>
  <g transform="matrix(.71543 -2.3157 2.3157 .71543 557.97 456.43)">
   <g transform="translate(67.331 -33.144)" stroke-width="1.5">
    <rect x="-50.092" y="85.022" width="28.144" height="43.767" rx=".69787" ry=".73034" fill="#fff" stroke="#000" stroke-linejoin="round" stroke-width="1.5" style="paint-order:normal"/>
   </g>
   <rect x="18.891" y="53.6" width="24.892" height="40.406" fill="#f00"/>
  </g>
  <g transform="matrix(.10572 -2.4213 2.4213 .10572 531.45 360.16)">
   <g transform="translate(67.331 -33.144)" stroke-width="1.5">
    <rect x="-50.092" y="85.022" width="28.144" height="43.767" rx=".69787" ry=".73034" fill="#fff" stroke="#000" stroke-linejoin="round" stroke-width="1.5" style="paint-order:normal"/>
   </g>
   <rect x="18.891" y="53.6" width="24.892" height="40.406" fill="#f00"/>
  </g>
  <g transform="matrix(-1.068 -2.1756 2.1756 -1.068 431.48 525.47)">
   <g transform="translate(67.331 -33.144)" stroke-width="1.5">
    <rect x="-50.092" y="85.022" width="28.144" height="43.767" rx=".69787" ry=".73034" fill="#fff" stroke="#000" stroke-linejoin="round" stroke-width="1.5" style="paint-order:normal"/>
   </g>
   <rect x="18.891" y="53.6" width="24.892" height="40.406" fill="#f00"/>
  </g>
  <g transform="matrix(-2.249 .90326 -.90326 -2.249 748.56 580.18)">
   <g transform="translate(67.331 -33.144)" stroke-width="1.5">
    <rect x="-50.092" y="85.022" width="28.144" height="43.767" rx=".69787" ry=".73034" fill="#fff" stroke="#000" stroke-linejoin="round" stroke-width="1.5" style="paint-order:normal"/>
   </g>
   <rect x="18.891" y="53.6" width="24.892" height="40.406" fill="#f00"/>
  </g>
  <g transform="matrix(-.94753 -2.2308 2.2308 -.94753 466.2 449.17)">
   <g transform="translate(67.331 -33.144)" stroke-width="1.5">
    <rect x="-50.092" y="85.022" width="28.144" height="43.767" rx=".69787" ry=".73034" fill="#fff" stroke="#000" stroke-linejoin="round" stroke-width="1.5" style="paint-order:normal"/>
   </g>
   <rect x="18.891" y="53.6" width="24.892" height="40.406" fill="#f00"/>
  </g>
  <g transform="matrix(-2.4207 -.12031 .12031 -2.4207 743 595.49)">
   <g transform="translate(67.331 -33.144)" stroke-width="1.5">
    <rect x="-50.092" y="85.022" width="28.144" height="43.767" rx=".69787" ry=".73034" fill="#fff" stroke="#000" stroke-linejoin="round" stroke-width="1.5" style="paint-order:normal"/>
   </g>
   <rect x="18.891" y="53.6" width="24.892" height="40.406" fill="#f00"/>
  </g>
  <g transform="matrix(-2.3309 .66398 -.66398 -2.3309 897.31 514.22)">
   <g transform="translate(67.331 -33.144)" stroke-width="1.5">
    <rect x="-50.092" y="85.022" width="28.144" height="43.767" rx=".69787" ry=".73034" fill="#fff" stroke="#000" stroke-linejoin="round" stroke-width="1.5" style="paint-order:normal"/>
   </g>
   <rect x="18.891" y="53.6" width="24.892" height="40.406" fill="#f00"/>
  </g>
  <g transform="matrix(2.4162 -.19016 .19016 2.4162 769.94 -106.96)">
   <g transform="translate(67.331 -33.144)" stroke-width="1.5">
    <rect x="-50.092" y="85.022" width="28.144" height="43.767" rx=".69787" ry=".73034" fill="#fff" stroke="#000" stroke-linejoin="round" stroke-width="1.5" style="paint-order:normal"/>
   </g>
   <rect x="18.891" y="53.6" width="24.892" height="40.406" fill="#f00"/>
  </g>
  <g transform="matrix(2.4203 -.12684 .12684 2.4203 707.8 -104.88)">
   <g transform="translate(67.331 -33.144)" stroke-width="1.5">
    <rect x="-50.092" y="85.022" width="28.144" height="43.767" rx=".69787" ry=".73034" fill="#fff" stroke="#000" stroke-linejoin="round" stroke-width="1.5" style="paint-order:normal"/>
   </g>
   <rect x="18.891" y="53.6" width="24.892" height="40.406" fill="#f00"/>
  </g>
  <g transform="matrix(2.4228 -.063444 .063444 2.4228 645.63 -104.43)">
   <g transform="translate(67.331 -33.144)" stroke-width="1.5">
    <rect x="-50.092" y="85.022" width="28.144" height="43.767" rx=".69787" ry=".73034" fill="#fff" stroke="#000" stroke-linejoin="round" stroke-width="1.5" style="paint-order:normal"/>
   </g>
   <rect x="18.891" y="53.6" width="24.892" height="40.406" fill="#f00"/>
  </g>
  <g transform="matrix(2.4236 0 0 2.4236 583.48 -105.6)">
   <g transform="translate(67.331 -33.144)" stroke-width="1.5">
    <rect x="-50.092" y="85.022" width="28.144" height="43.767" rx=".69787" ry=".73034" fill="#fff" stroke="#000" stroke-linejoin="round" stroke-width="1.5" style="paint-order:normal"/>
   </g>
   <rect x="18.891" y="53.6" width="24.892" height="40.406" fill="#f00"/>
  </g>
  <g transform="matrix(2.4228 .063444 -.063444 2.4228 521.37 -108.4)">
   <g transform="translate(67.331 -33.144)" stroke-width="1.5">
    <rect x="-50.092" y="85.022" width="28.144" height="43.767" rx=".69787" ry=".73034" fill="#fff" stroke="#000" stroke-linejoin="round" stroke-width="1.5" style="paint-order:normal"/>
   </g>
   <rect x="18.891" y="53.6" width="24.892" height="40.406" fill="#f00"/>
  </g>
  <g transform="matrix(2.4203 .12684 -.12684 2.4203 459.36 -112.82)">
   <g transform="translate(67.331 -33.144)" stroke-width="1.5">
    <rect x="-50.092" y="85.022" width="28.144" height="43.767" rx=".69787" ry=".73034" fill="#fff" stroke="#000" stroke-linejoin="round" stroke-width="1.5" style="paint-order:normal"/>
   </g>
   <rect x="18.891" y="53.6" width="24.892" height="40.406" fill="#f00"/>
  </g>
  <g transform="matrix(2.4162 .19016 -.19016 2.4162 397.48 -118.87)">
   <g transform="translate(67.331 -33.144)" stroke-width="1.5">
    <rect x="-50.092" y="85.022" width="28.144" height="43.767" rx=".69787" ry=".73034" fill="#fff" stroke="#000" stroke-linejoin="round" stroke-width="1.5" style="paint-order:normal"/>
   </g>
   <rect x="18.891" y="53.6" width="24.892" height="40.406" fill="#f00"/>
  </g>
  <g transform="matrix(.19016 2.4162 -2.4162 .19016 1184.7 490.48)">
   <g transform="translate(67.331 -33.144)" stroke-width="1.5">
    <rect x="-50.092" y="85.022" width="28.144" height="43.767" rx=".69787" ry=".73034" fill="#fff" stroke="#000" stroke-linejoin="round" stroke-width="1.5" style="paint-order:normal"/>
   </g>
   <rect x="18.891" y="53.6" width="24.892" height="40.406" fill="#f00"/>
  </g>
  <g transform="matrix(.12684 2.4203 -2.4203 .12684 1182.6 428.35)">
   <g transform="translate(67.331 -33.144)" stroke-width="1.5">
    <rect x="-50.092" y="85.022" width="28.144" height="43.767" rx=".69787" ry=".73034" fill="#fff" stroke="#000" stroke-linejoin="round" stroke-width="1.5" style="paint-order:normal"/>
   </g>
   <rect x="18.891" y="53.6" width="24.892" height="40.406" fill="#f00"/>
  </g>
  <g transform="matrix(.063444 2.4228 -2.4228 .063444 1182.2 366.18)">
   <g transform="translate(67.331 -33.144)" stroke-width="1.5">
    <rect x="-50.092" y="85.022" width="28.144" height="43.767" rx=".69787" ry=".73034" fill="#fff" stroke="#000" stroke-linejoin="round" stroke-width="1.5" style="paint-order:normal"/>
   </g>
   <rect x="18.891" y="53.6" width="24.892" height="40.406" fill="#f00"/>
  </g>
  <g transform="matrix(0 2.4236 -2.4236 0 1183.3 304.02)">
   <g transform="translate(67.331 -33.144)" stroke-width="1.5">
    <rect x="-50.092" y="85.022" width="28.144" height="43.767" rx=".69787" ry=".73034" fill="#fff" stroke="#000" stroke-linejoin="round" stroke-width="1.5" style="paint-order:normal"/>
   </g>
   <rect x="18.891" y="53.6" width="24.892" height="40.406" fill="#f00"/>
  </g>
  <g transform="matrix(-.063444 2.4228 -2.4228 -.063444 1186.1 241.91)">
   <g transform="translate(67.331 -33.144)" stroke-width="1.5">
    <rect x="-50.092" y="85.022" width="28.144" height="43.767" rx=".69787" ry=".73034" fill="#fff" stroke="#000" stroke-linejoin="round" stroke-width="1.5" style="paint-order:normal"/>
   </g>
   <rect x="18.891" y="53.6" width="24.892" height="40.406" fill="#f00"/>
  </g>
  <g transform="matrix(-.12684 2.4203 -2.4203 -.12684 1190.6 179.9)">
   <g transform="translate(67.331 -33.144)" stroke-width="1.5">
    <rect x="-50.092" y="85.022" width="28.144" height="43.767" rx=".69787" ry=".73034" fill="#fff" stroke="#000" stroke-linejoin="round" stroke-width="1.5" style="paint-order:normal"/>
   </g>
   <rect x="18.891" y="53.6" width="24.892" height="40.406" fill="#f00"/>
  </g>
  <g transform="matrix(-.19016 2.4162 -2.4162 -.19016 1196.6 118.03)">
   <g transform="translate(67.331 -33.144)" stroke-width="1.5">
    <rect x="-50.092" y="85.022" width="28.144" height="43.767" rx=".69787" ry=".73034" fill="#fff" stroke="#000" stroke-linejoin="round" stroke-width="1.5" style="paint-order:normal"/>
   </g>
   <rect x="18.891" y="53.6" width="24.892" height="40.406" fill="#f00"/>
  </g>
  <g transform="matrix(-.19016 -2.4162 2.4162 -.19016 134.02 269.33)">
   <g transform="translate(67.331 -33.144)" stroke-width="1.5">
    <rect x="-50.092" y="85.022" width="28.144" height="43.767" rx=".69787" ry=".73034" fill="#fff" stroke="#000" stroke-linejoin="round" stroke-width="1.5" style="paint-order:normal"/>
   </g>
   <rect x="18.891" y="53.6" width="24.892" height="40.406" fill="#f00"/>
  </g>
  <g transform="matrix(-.12684 -2.4203 2.4203 -.12684 136.1 331.47)">
   <g transform="translate(67.331 -33.144)" stroke-width="1.5">
    <rect x="-50.092" y="85.022" width="28.144" height="43.767" rx=".69787" ry=".73034" fill="#fff" stroke="#000" stroke-linejoin="round" stroke-width="1.5" style="paint-order:normal"/>
   </g>
   <rect x="18.891" y="53.6" width="24.892" height="40.406" fill="#f00"/>
  </g>
  <g transform="matrix(-.063444 -2.4228 2.4228 -.063444 136.56 393.63)">
   <g transform="translate(67.331 -33.144)" stroke-width="1.5">
    <rect x="-50.092" y="85.022" width="28.144" height="43.767" rx=".69787" ry=".73034" fill="#fff" stroke="#000" stroke-linejoin="round" stroke-width="1.5" style="paint-order:normal"/>
   </g>
   <rect x="18.891" y="53.6" width="24.892" height="40.406" fill="#f00"/>
  </g>
  <g transform="matrix(0 -2.4236 2.4236 0 135.38 455.79)">
   <g transform="translate(67.331 -33.144)" stroke-width="1.5">
    <rect x="-50.092" y="85.022" width="28.144" height="43.767" rx=".69787" ry=".73034" fill="#fff" stroke="#000" stroke-linejoin="round" stroke-width="1.5" style="paint-order:normal"/>
   </g>
   <rect x="18.891" y="53.6" width="24.892" height="40.406" fill="#f00"/>
  </g>
  <g transform="matrix(.063444 -2.4228 2.4228 .063444 132.58 517.9)">
   <g transform="translate(67.331 -33.144)" stroke-width="1.5">
    <rect x="-50.092" y="85.022" width="28.144" height="43.767" rx=".69787" ry=".73034" fill="#fff" stroke="#000" stroke-linejoin="round" stroke-width="1.5" style="paint-order:normal"/>
   </g>
   <rect x="18.891" y="53.6" width="24.892" height="40.406" fill="#f00"/>
  </g>
  <g transform="matrix(.12684 -2.4203 2.4203 .12684 128.16 579.91)">
   <g transform="translate(67.331 -33.144)" stroke-width="1.5">
    <rect x="-50.092" y="85.022" width="28.144" height="43.767" rx=".69787" ry=".73034" fill="#fff" stroke="#000" stroke-linejoin="round" stroke-width="1.5" style="paint-order:normal"/>
   </g>
   <rect x="18.891" y="53.6" width="24.892" height="40.406" fill="#f00"/>
  </g>
  <g transform="matrix(.19016 -2.4162 2.4162 .19016 122.11 641.78)">
   <g transform="translate(67.331 -33.144)" stroke-width="1.5">
    <rect x="-50.092" y="85.022" width="28.144" height="43.767" rx=".69787" ry=".73034" fill="#fff" stroke="#000" stroke-linejoin="round" stroke-width="1.5" style="paint-order:normal"/>
   </g>
   <rect x="18.891" y="53.6" width="24.892" height="40.406" fill="#f00"/>
  </g>
  <rect transform="rotate(-4.5)" x="369.05" y="675.95" width="68.212" height="106.08" rx="1.6914" ry="1.7701" fill="#fff" stroke="#000" stroke-linejoin="round" stroke-width="2.4236" style="paint-order:normal"/>
  <g transform="matrix(.63928 -.050312 .050312 .63928 222.92 147.21)" fill="#f00" style="shape-inside:url(#rect1010);white-space:pre" aria-label="♥2">
   <path d="m277.49 863.61q4.2292 0 6.6458 4.8958 0.875 1.9375 0.91667 2.9583h0.0625q0.72917-3.375 2.6458-5.6042 2.25-2.25 5.0625-2.25 4.3542 0 6.9792 4.6667 0.66667 1.7292 0.66667 3.25 0 5.2083-4.3333 9.9375l-11.021 13.229h-0.125l-11.708-14.354q-3.5-4.2708-3.5-8.8125 0-4.3958 4.1458-6.9792 1.75-0.9375 3.5625-0.9375z"/>
   <path d="m312.43 891.15h14.688v3.5417h-19.75v-3.5417q2.3958-2.4792 6.5208-6.6458 4.1458-4.1875 5.2083-5.3958 2.0208-2.2708 2.8125-3.8333 0.8125-1.5833 0.8125-3.1042 0-2.4792-1.75-4.0417-1.7292-1.5625-4.5208-1.5625-1.9792 0-4.1875 0.6875-2.1875 0.6875-4.6875 2.0833v-4.25q2.5417-1.0208 4.75-1.5417 2.2083-0.52084 4.0417-0.52084 4.8333 0 7.7083 2.4167t2.875 6.4583q0 1.9167-0.72916 3.6458-0.70834 1.7083-2.6042 4.0417-0.52084 0.60416-3.3125 3.5-2.7917 2.875-7.875 8.0625z"/>
  </g>
  <rect transform="rotate(-3)" x="454.81" y="664.27" width="68.212" height="106.08" rx="1.6914" ry="1.7701" fill="#fff" stroke="#000" stroke-linejoin="round" stroke-width="2.4236" style="paint-order:normal"/>
  <g transform="matrix(.64038 -.033561 .033561 .64038 304.02 136.84)" style="shape-inside:url(#rect1514);white-space:pre" aria-label="♠5">
   <path d="m285.15 863.61q1.9583 3.4792 6.4583 9.2292 4.9375 5.7917 5.0625 6.9792 0.8125 1.7708 0.8125 3.4375v0.83333q0 3.4792-3.375 5.4792-1.1042 0.45833-2.4375 0.45833-3.2083 0-5.1875-4.6042h-0.875v0.25q0 5.8958 1.7292 9.0208h-4.4792v-0.125q1.7708-3.1458 1.7708-9.0833l-0.0625-0.0625h-0.79166l-0.97917 1.8333q-1.7708 2.7708-4.4167 2.7708-3.8958 0-5.4792-4.3542l-0.1875-1.5208v-0.95833q0-3.8125 3.8958-8.0417 6.5625-8.0417 8.4167-11.479l0.0625-0.0625z"/>
   <path d="m308.84 863.59h16.521v3.5417h-12.667v7.625q0.91667-0.3125 1.8333-0.45833 0.91666-0.16667 1.8333-0.16667 5.2083 0 8.25 2.8542t3.0417 7.7292q0 5.0208-3.125 7.8125-3.125 2.7708-8.8125 2.7708-1.9583 0-4-0.33333-2.0208-0.33334-4.1875-1v-4.2292q1.875 1.0208 3.875 1.5208 2 0.5 4.2292 0.5 3.6042 0 5.7083-1.8958 2.1042-1.8958 2.1042-5.1458t-2.1042-5.1458q-2.1042-1.8958-5.7083-1.8958-1.6875 0-3.375 0.375-1.6667 0.375-3.4167 1.1667z"/>
  </g>
  <rect transform="rotate(-1.5)" x="540.23" y="650.36" width="68.212" height="106.08" rx="1.6914" ry="1.7701" fill="#fff" stroke="#000" stroke-linejoin="round" stroke-width="2.4236" style="paint-order:normal"/>
  <g transform="matrix(.64104 -.016786 .016786 .64104 385.36 128.6)" style="shape-inside:url(#rect1506);white-space:pre" aria-label="♣9">
   <path d="m285.13 863.61q4.4583 0 6.5625 4.7292 0.27083 1.0833 0.33333 2.25 0 2.4375-2.5 5.7708l-1.25 1.25h0.0625q1.5417-0.58334 3.2917-0.58334h0.39583q4.9583 0 6.9583 4.2083 0.47917 1.375 0.47917 2.625 0 4.2708-4.3542 6.4375-0.83334 0.25-2.3125 0.375-5.0417 0-7.1458-5.7083h-0.0625v0.1875q0 7.1458 1.7083 9.4167v0.125h-4.3333l-0.125-0.125q1.7708-2.6667 1.7708-9.6042v-0.0625h-0.0625q-2.0833 5.7708-7.1875 5.7708-3.9792 0-6.1042-4.1875-0.52083-1.4167-0.52083-2.625 0-4.8542 5.125-6.5833 1.375-0.25 2.4375-0.25h0.1875q1.7917 0 3.4167 0.58334h0.0625v-0.0625q-1.75-1.4792-2.3542-2.9167-1.25-2.2917-1.25-3.9792v-0.29167q0-4.1875 4.4792-6.3542 1.4792-0.39583 2.2917-0.39583z"/>
   <path d="m308.93 894.05v-3.8333q1.5833 0.75 3.2083 1.1458 1.625 0.39583 3.1875 0.39583 4.1667 0 6.3542-2.7917 2.2083-2.8125 2.5208-8.5208-1.2083 1.7917-3.0625 2.75-1.8542 0.95833-4.1042 0.95833-4.6667 0-7.3958-2.8125-2.7083-2.8333-2.7083-7.7292 0-4.7917 2.8333-7.6875t7.5417-2.8958q5.3958 0 8.2292 4.1458 2.8542 4.125 2.8542 12 0 7.3542-3.5 11.75-3.4792 4.375-9.375 4.375-1.5833 0-3.2083-0.3125t-3.375-0.9375zm8.375-13.188q2.8333 0 4.4792-1.9375 1.6667-1.9375 1.6667-5.3125 0-3.3542-1.6667-5.2917-1.6458-1.9583-4.4792-1.9583-2.8333 0-4.5 1.9583-1.6458 1.9375-1.6458 5.2917 0 3.375 1.6458 5.3125 1.6667 1.9375 4.5 1.9375z"/>
  </g>
  <rect x="625.26" y="634.21" width="68.212" height="106.08" rx="1.6914" ry="1.7701" fill="#fff" stroke="#000" stroke-linejoin="round" stroke-width="2.4236" style="paint-order:normal"/>
  <g transform="matrix(.64126 0 0 .64126 466.89 122.5)" fill="#f00" style="shape-inside:url(#rect8845-7);white-space:pre" aria-label="♥9">
   <path d="m277.49 863.61q4.2292 0 6.6458 4.8958 0.875 1.9375 0.91667 2.9583h0.0625q0.72917-3.375 2.6458-5.6042 2.25-2.25 5.0625-2.25 4.3542 0 6.9792 4.6667 0.66667 1.7292 0.66667 3.25 0 5.2083-4.3333 9.9375l-11.021 13.229h-0.125l-11.708-14.354q-3.5-4.2708-3.5-8.8125 0-4.3958 4.1458-6.9792 1.75-0.9375 3.5625-0.9375z"/>
   <path d="m308.93 894.05v-3.8333q1.5833 0.75 3.2083 1.1458 1.625 0.39583 3.1875 0.39583 4.1667 0 6.3542-2.7917 2.2083-2.8125 2.5208-8.5208-1.2083 1.7917-3.0625 2.75-1.8542 0.95833-4.1042 0.95833-4.6667 0-7.3958-2.8125-2.7083-2.8333-2.7083-7.7292 0-4.7917 2.8333-7.6875t7.5417-2.8958q5.3958 0 8.2292 4.1458 2.8542 4.125 2.8542 12 0 7.3542-3.5 11.75-3.4792 4.375-9.375 4.375-1.5833 0-3.2083-0.3125t-3.375-0.9375zm8.375-13.188q2.8333 0 4.4792-1.9375 1.6667-1.9375 1.6667-5.3125 0-3.3542-1.6667-5.2917-1.6458-1.9583-4.4792-1.9583-2.8333 0-4.5 1.9583-1.6458 1.9375-1.6458 5.2917 0 3.375 1.6458 5.3125 1.6667 1.9375 4.5 1.9375z"/>
  </g>
  <rect transform="rotate(1.5)" x="709.83" y="615.84" width="68.212" height="106.08" rx="1.6914" ry="1.7701" fill="#fff" stroke="#000" stroke-linejoin="round" stroke-width="2.4236" style="paint-order:normal"/>
  <g transform="matrix(.64104 .016786 -.016786 .64104 548.55 118.53)" fill="#f00" style="shape-inside:url(#rect1490);white-space:pre" aria-label="♦10">
   <path d="m271.54 863.61 10.479 13.604q1.4375 1.7708 1.4375 2.0417l-11.917 15.438q-0.25-0.16666-11.958-15.438 0-0.29166 2.3125-3.1667z"/>
   <path d="m295.96 891.15h6.875v-23.729l-7.4792 1.5v-3.8333l7.4375-1.5h4.2083v27.563h6.875v3.5417h-17.917z"/>
   <path d="m331.37 866.36q-3.25 0-4.8958 3.2083-1.625 3.1875-1.625 9.6042 0 6.3958 1.625 9.6042 1.6458 3.1875 4.8958 3.1875 3.2708 0 4.8958-3.1875 1.6458-3.2083 1.6458-9.6042 0-6.4167-1.6458-9.6042-1.625-3.2083-4.8958-3.2083zm0-3.3333q5.2292 0 7.9792 4.1458 2.7708 4.125 2.7708 12 0 7.8542-2.7708 12-2.75 4.125-7.9792 4.125t-8-4.125q-2.75-4.1458-2.75-12 0-7.875 2.75-12 2.7708-4.1458 8-4.1458z"/>
  </g>
  <rect transform="rotate(3)" x="793.9" y="595.26" width="68.212" height="106.08" rx="1.6914" ry="1.7701" fill="#fff" stroke="#000" stroke-linejoin="round" stroke-width="2.4236" style="paint-order:normal"/>
  <g transform="matrix(.64038 .033561 -.033561 .64038 630.29 116.69)" style="shape-inside:url(#rect1498);white-space:pre" aria-label="♣A">
   <path d="m284.11 863.61q4.4583 0 6.5625 4.7292 0.27084 1.0833 0.33334 2.25 0 2.4375-2.5 5.7708l-1.25 1.25h0.0625q1.5417-0.58334 3.2917-0.58334h0.39584q4.9583 0 6.9583 4.2083 0.47916 1.375 0.47916 2.625 0 4.2708-4.3542 6.4375-0.83333 0.25-2.3125 0.375-5.0417 0-7.1458-5.7083h-0.0625v0.1875q0 7.1458 1.7083 9.4167v0.125h-4.3333l-0.125-0.125q1.7708-2.6667 1.7708-9.6042v-0.0625h-0.0625q-2.0833 5.7708-7.1875 5.7708-3.9792 0-6.1042-4.1875-0.52083-1.4167-0.52083-2.625 0-4.8542 5.125-6.5833 1.375-0.25 2.4375-0.25h0.1875q1.7917 0 3.4167 0.58334h0.0625v-0.0625q-1.75-1.4792-2.3542-2.9167-1.25-2.2917-1.25-3.9792v-0.29167q0-4.1875 4.4792-6.3542 1.4792-0.39583 2.2917-0.39583z"/>
   <path d="m317.8 867.73-5.7083 15.479h11.438zm-2.375-4.1458h4.7708l11.854 31.104h-4.375l-2.8333-7.9792h-14.021l-2.8333 7.9792h-4.4375z"/>
  </g>
  <rect transform="rotate(4.5)" x="877.4" y="572.49" width="68.212" height="106.08" rx="1.6914" ry="1.7701" fill="#fff" stroke="#000" stroke-linejoin="round" stroke-width="2.4236" style="paint-order:normal"/>
  <g transform="matrix(.63928 .050312 -.050312 .63928 712.05 117)" fill="#f00" style="shape-inside:url(#rect1002);white-space:pre" aria-label="♦Q">
   <path d="m281.89 863.61 10.479 13.604q1.4375 1.7708 1.4375 2.0417l-11.917 15.438q-0.25-0.16666-11.958-15.438 0-0.29166 2.3125-3.1667z"/>
   <path d="m317.83 866.44q-4.5833 0-7.2917 3.4167-2.6875 3.4167-2.6875 9.3125 0 5.875 2.6875 9.2917 2.7083 3.4167 7.2917 3.4167 4.5833 0 7.25-3.4167 2.6875-3.4167 2.6875-9.2917 0-5.8958-2.6875-9.3125-2.6667-3.4167-7.25-3.4167zm5.8958 27.688 5.5417 6.0625h-5.0833l-4.6042-4.9792q-0.6875 0.0417-1.0625 0.0625-0.35416 0.0208-0.6875 0.0208-6.5625 0-10.5-4.375-3.9167-4.3958-3.9167-11.75 0-7.375 3.9167-11.75 3.9375-4.3958 10.5-4.3958 6.5417 0 10.458 4.3958 3.9167 4.375 3.9167 11.75 0 5.4167-2.1875 9.2708-2.1667 3.8542-6.2917 5.6875z"/>
  </g>
 </g>
</svg>
