<!-- Created with Inkscape (http://www.inkscape.org/) -->
<svg width="615.14" height="290.29" version="1.1" viewBox="0 0 615.14 290.29" xmlns="http://www.w3.org/2000/svg">
 <g transform="translate(-330.93 -211.37)">
  <g transform="matrix(3.3693 0 0 3.3693 275.37 107.91)">
   <g transform="translate(67.331 -33.144)" stroke-width="1.5">
    <rect x="-50.092" y="85.022" width="28.144" height="43.767" rx=".69787" ry=".73034" fill="#fff" stroke="#000" stroke-linejoin="round" stroke-width="1.5" style="paint-order:normal"/>
   </g>
   <rect x="18.891" y="53.6" width="24.892" height="40.406" fill="#f00"/>
  </g>
  <g transform="matrix(3.3693 0 0 3.3693 282.51 111.48)">
   <g transform="translate(67.331 -33.144)" stroke-width="1.5">
    <rect x="-50.092" y="85.022" width="28.144" height="43.767" rx=".69787" ry=".73034" fill="#fff" stroke="#000" stroke-linejoin="round" stroke-width="1.5" style="paint-order:normal"/>
   </g>
   <rect x="18.891" y="53.6" width="24.892" height="40.406" fill="#f00"/>
  </g>
  <g transform="matrix(3.3693 0 0 3.3693 289.64 115.04)">
   <g transform="translate(67.331 -33.144)" stroke-width="1.5">
    <rect x="-50.092" y="85.022" width="28.144" height="43.767" rx=".69787" ry=".73034" fill="#fff" stroke="#000" stroke-linejoin="round" stroke-width="1.5" style="paint-order:normal"/>
   </g>
   <rect x="18.891" y="53.6" width="24.892" height="40.406" fill="#f00"/>
  </g>
  <g transform="matrix(3.3693 0 0 3.3693 776.37 107.91)">
   <g transform="translate(67.331 -33.144)" stroke-width="1.5">
    <rect x="-50.092" y="85.022" width="28.144" height="43.767" rx=".69787" ry=".73034" fill="#fff" stroke="#000" stroke-linejoin="round" stroke-width="1.5" style="paint-order:normal"/>
   </g>
   <rect x="18.891" y="53.6" width="24.892" height="40.406" fill="#f00"/>
  </g>
  <g transform="matrix(3.3693 0 0 3.3693 783.51 111.48)">
   <g transform="translate(67.331 -33.144)" stroke-width="1.5">
    <rect x="-50.092" y="85.022" width="28.144" height="43.767" rx=".69787" ry=".73034" fill="#fff" stroke="#000" stroke-linejoin="round" stroke-width="1.5" style="paint-order:normal"/>
   </g>
   <rect x="18.891" y="53.6" width="24.892" height="40.406" fill="#f00"/>
  </g>
  <g transform="matrix(3.3693 0 0 3.3693 790.64 115.04)">
   <g transform="translate(67.331 -33.144)" stroke-width="1.5">
    <rect x="-50.092" y="85.022" width="28.144" height="43.767" rx=".69787" ry=".73034" fill="#fff" stroke="#000" stroke-linejoin="round" stroke-width="1.5" style="paint-order:normal"/>
   </g>
   <rect x="18.891" y="53.6" width="24.892" height="40.406" fill="#f00"/>
  </g>
  <rect x="522.84" y="213.06" width="94.826" height="147.46" rx="2.3513" ry="2.4607" fill="#fff" stroke="#000" stroke-linejoin="round" stroke-width="3.3693" style="paint-order:normal"/>
  <g transform="matrix(.89145 0 0 .89145 302.68 -498.31)" fill="#f00" style="shape-inside:url(#rect8845);white-space:pre" aria-label="♦7">
   <path d="m285.11 863.61 10.479 13.604q1.4375 1.7708 1.4375 2.0417l-11.917 15.438q-0.25-0.16666-11.958-15.438 0-0.29166 2.3125-3.1667z"/>
   <path d="m307.74 863.59h20v1.7917l-11.292 29.313h-4.3958l10.625-27.563h-14.938z"/>
  </g>
  <rect x="659.67" y="213.06" width="94.826" height="147.46" rx="2.3513" ry="2.4607" fill="#fff" stroke="#000" stroke-linejoin="round" stroke-width="3.3693" style="paint-order:normal"/>
  <g transform="matrix(3.2941 0 0 3.3095 603.68 149.62)">
   <g transform="translate(67.331 -33.144)" stroke-width="1.5">
    <rect x="-50.092" y="85.022" width="28.144" height="43.767" rx=".69787" ry=".73034" fill="#fff" stroke="#000" stroke-linejoin="round" stroke-width="1.5" style="paint-order:normal"/>
   </g>
   <rect x="18.891" y="53.6" width="24.892" height="40.406" fill="#f00"/>
  </g>
  <g transform="matrix(3.2941 0 0 3.3095 603.68 165.62)">
   <g transform="translate(67.331 -33.144)" stroke-width="1.5">
    <rect x="-50.092" y="85.022" width="28.144" height="43.767" rx=".69787" ry=".73034" fill="#fff" stroke="#000" stroke-linejoin="round" stroke-width="1.5" style="paint-order:normal"/>
   </g>
   <rect x="18.891" y="53.6" width="24.892" height="40.406" fill="#f00"/>
  </g>
  <g transform="matrix(.89145 0 0 .89145 439.51 -498.31)" style="shape-inside:url(#rect8845-0);white-space:pre" aria-label="♠7">
   <path d="m285.15 863.61q1.9583 3.4792 6.4583 9.2292 4.9375 5.7917 5.0625 6.9792 0.8125 1.7708 0.8125 3.4375v0.83333q0 3.4792-3.375 5.4792-1.1042 0.45833-2.4375 0.45833-3.2083 0-5.1875-4.6042h-0.875v0.25q0 5.8958 1.7292 9.0208h-4.4792v-0.125q1.7708-3.1458 1.7708-9.0833l-0.0625-0.0625h-0.79166l-0.97917 1.8333q-1.7708 2.7708-4.4167 2.7708-3.8958 0-5.4792-4.3542l-0.1875-1.5208v-0.95833q0-3.8125 3.8958-8.0417 6.5625-8.0417 8.4167-11.479l0.0625-0.0625z"/>
   <path d="m307.74 863.59h20v1.7917l-11.292 29.313h-4.3958l10.625-27.563h-14.938z"/>
  </g>
  <g transform="matrix(3.2941 0 0 3.3095 467.22 149.62)">
   <g transform="translate(67.331 -33.144)" stroke-width="1.5">
    <rect x="-50.092" y="85.022" width="28.144" height="43.767" rx=".69787" ry=".73034" fill="#fff" stroke="#000" stroke-linejoin="round" stroke-width="1.5" style="paint-order:normal"/>
   </g>
   <rect x="18.891" y="53.6" width="24.892" height="40.406" fill="#f00"/>
  </g>
  <g transform="matrix(3.2941 0 0 3.3095 467.22 165.62)">
   <g transform="translate(67.331 -33.144)" stroke-width="1.5">
    <rect x="-50.092" y="85.022" width="28.144" height="43.767" rx=".69787" ry=".73034" fill="#fff" stroke="#000" stroke-linejoin="round" stroke-width="1.5" style="paint-order:normal"/>
   </g>
   <rect x="18.891" y="53.6" width="24.892" height="40.406" fill="#f00"/>
  </g>
  <rect x="522.84" y="352.52" width="94.826" height="147.46" rx="2.3513" ry="2.4607" fill="#fff" stroke="#000" stroke-linejoin="round" stroke-width="3.3693" style="paint-order:normal"/>
  <g transform="matrix(.89145 0 0 .89145 302.68 -358.84)" style="shape-inside:url(#rect8845-3);white-space:pre" aria-label="♣9">
   <path d="m285.13 863.61q4.4583 0 6.5625 4.7292 0.27083 1.0833 0.33333 2.25 0 2.4375-2.5 5.7708l-1.25 1.25h0.0625q1.5417-0.58334 3.2917-0.58334h0.39583q4.9583 0 6.9583 4.2083 0.47917 1.375 0.47917 2.625 0 4.2708-4.3542 6.4375-0.83334 0.25-2.3125 0.375-5.0417 0-7.1458-5.7083h-0.0625v0.1875q0 7.1458 1.7083 9.4167v0.125h-4.3333l-0.125-0.125q1.7708-2.6667 1.7708-9.6042v-0.0625h-0.0625q-2.0833 5.7708-7.1875 5.7708-3.9792 0-6.1042-4.1875-0.52083-1.4167-0.52083-2.625 0-4.8542 5.125-6.5833 1.375-0.25 2.4375-0.25h0.1875q1.7917 0 3.4167 0.58334h0.0625v-0.0625q-1.75-1.4792-2.3542-2.9167-1.25-2.2917-1.25-3.9792v-0.29167q0-4.1875 4.4792-6.3542 1.4792-0.39583 2.2917-0.39583z"/>
   <path d="m308.93 894.05v-3.8333q1.5833 0.75 3.2083 1.1458 1.625 0.39583 3.1875 0.39583 4.1667 0 6.3542-2.7917 2.2083-2.8125 2.5208-8.5208-1.2083 1.7917-3.0625 2.75-1.8542 0.95833-4.1042 0.95833-4.6667 0-7.3958-2.8125-2.7083-2.8333-2.7083-7.7292 0-4.7917 2.8333-7.6875t7.5417-2.8958q5.3958 0 8.2292 4.1458 2.8542 4.125 2.8542 12 0 7.3542-3.5 11.75-3.4792 4.375-9.375 4.375-1.5833 0-3.2083-0.3125t-3.375-0.9375zm8.375-13.188q2.8333 0 4.4792-1.9375 1.6667-1.9375 1.6667-5.3125 0-3.3542-1.6667-5.2917-1.6458-1.9583-4.4792-1.9583-2.8333 0-4.5 1.9583-1.6458 1.9375-1.6458 5.2917 0 3.375 1.6458 5.3125 1.6667 1.9375 4.5 1.9375z"/>
  </g>
  <rect x="659.67" y="352.52" width="94.826" height="147.46" rx="2.3513" ry="2.4607" fill="#fff" stroke="#000" stroke-linejoin="round" stroke-width="3.3693" style="paint-order:normal"/>
  <g transform="matrix(.89145 0 0 .89145 439.51 -358.84)" fill="#f00" style="shape-inside:url(#rect8845-9);white-space:pre" aria-label="♥4">
   <path d="m277.49 863.61q4.2292 0 6.6458 4.8958 0.875 1.9375 0.91667 2.9583h0.0625q0.72917-3.375 2.6458-5.6042 2.25-2.25 5.0625-2.25 4.3542 0 6.9792 4.6667 0.66667 1.7292 0.66667 3.25 0 5.2083-4.3333 9.9375l-11.021 13.229h-0.125l-11.708-14.354q-3.5-4.2708-3.5-8.8125 0-4.3958 4.1458-6.9792 1.75-0.9375 3.5625-0.9375z"/>
   <path d="m320.36 867.25-10.625 16.604h10.625zm-1.1042-3.6667h5.2917v20.271h4.4375v3.5h-4.4375v7.3333h-4.1875v-7.3333h-14.042v-4.0625z"/>
  </g>
 </g>
</svg>
