<!-- Created with Inkscape (http://www.inkscape.org/) -->
<svg width="680.63" height="603.68" version="1.1" viewBox="0 0 680.63 603.68" xmlns="http://www.w3.org/2000/svg">
 <g transform="translate(-299.05 -58.065)">
  <rect x="605.26" y="306.87" width="68.212" height="106.08" rx="1.6914" ry="1.7701" fill="#fff" stroke="#000" stroke-linejoin="round" stroke-width="2.4236" style="paint-order:normal"/>
  <g transform="matrix(.64126 0 0 .64126 446.89 -204.84)" fill="#f00" style="shape-inside:url(#rect8845-7-3);white-space:pre" aria-label="♥4">
   <path d="m277.49 863.61q4.2292 0 6.6458 4.8958 0.875 1.9375 0.91667 2.9583h0.0625q0.72917-3.375 2.6458-5.6042 2.25-2.25 5.0625-2.25 4.3542 0 6.9792 4.6667 0.66667 1.7292 0.66667 3.25 0 5.2083-4.3333 9.9375l-11.021 13.229h-0.125l-11.708-14.354q-3.5-4.2708-3.5-8.8125 0-4.3958 4.1458-6.9792 1.75-0.9375 3.5625-0.9375z"/>
   <path d="m320.36 867.25-10.625 16.604h10.625zm-1.1042-3.6667h5.2917v20.271h4.4375v3.5h-4.4375v7.3333h-4.1875v-7.3333h-14.042v-4.0625z"/>
  </g>
  <rect transform="rotate(-6)" x="407.88" y="599.6" width="68.212" height="106.08" rx="1.6914" ry="1.7701" fill="#fff" stroke="#000" stroke-linejoin="round" stroke-width="2.4236" style="paint-order:normal"/>
  <g transform="matrix(.63774 -.06703 .06703 .63774 257.33 61.332)" style="shape-inside:url(#rect15061);white-space:pre" aria-label="♠7">
   <path d="m285.15 863.61q1.9583 3.4792 6.4583 9.2292 4.9375 5.7917 5.0625 6.9792 0.8125 1.7708 0.8125 3.4375v0.83333q0 3.4792-3.375 5.4792-1.1042 0.45833-2.4375 0.45833-3.2083 0-5.1875-4.6042h-0.875v0.25q0 5.8958 1.7292 9.0208h-4.4792v-0.125q1.7708-3.1458 1.7708-9.0833l-0.0625-0.0625h-0.79166l-0.97917 1.8333q-1.7708 2.7708-4.4167 2.7708-3.8958 0-5.4792-4.3542l-0.1875-1.5208v-0.95833q0-3.8125 3.8958-8.0417 6.5625-8.0417 8.4167-11.479l0.0625-0.0625z"/>
   <path d="m307.74 863.59h20v1.7917l-11.292 29.313h-4.3958l10.625-27.563h-14.938z"/>
  </g>
  <rect transform="rotate(-5)" x="443.28" y="591.89" width="68.212" height="106.08" rx="1.6914" ry="1.7701" fill="#fff" stroke="#000" stroke-linejoin="round" stroke-width="2.4236" style="paint-order:normal"/>
  <g transform="matrix(.63882 -.055889 .055889 .63882 290.82 55.044)" fill="#f00" style="shape-inside:url(#rect15015);white-space:pre" aria-label="♦Q">
   <path d="m281.89 863.61 10.479 13.604q1.4375 1.7708 1.4375 2.0417l-11.917 15.438q-0.25-0.16666-11.958-15.438 0-0.29166 2.3125-3.1667z"/>
   <path d="m317.83 866.44q-4.5833 0-7.2917 3.4167-2.6875 3.4167-2.6875 9.3125 0 5.875 2.6875 9.2917 2.7083 3.4167 7.2917 3.4167 4.5833 0 7.25-3.4167 2.6875-3.4167 2.6875-9.2917 0-5.8958-2.6875-9.3125-2.6667-3.4167-7.25-3.4167zm5.8958 27.688 5.5417 6.0625h-5.0833l-4.6042-4.9792q-0.6875 0.0417-1.0625 0.0625-0.35416 0.0208-0.6875 0.0208-6.5625 0-10.5-4.375-3.9167-4.3958-3.9167-11.75 0-7.375 3.9167-11.75 3.9375-4.3958 10.5-4.3958 6.5417 0 10.458 4.3958 3.9167 4.375 3.9167 11.75 0 5.4167-2.1875 9.2708-2.1667 3.8542-6.2917 5.6875z"/>
  </g>
  <rect transform="rotate(-4)" x="478.55" y="583.14" width="68.212" height="106.08" rx="1.6914" ry="1.7701" fill="#fff" stroke="#000" stroke-linejoin="round" stroke-width="2.4236" style="paint-order:normal"/>
  <g transform="matrix(.6397 -.044732 .044732 .6397 324.38 48.922)" style="shape-inside:url(#rect15007);white-space:pre" aria-label="♣4">
   <path d="m285.13 863.61q4.4583 0 6.5625 4.7292 0.27083 1.0833 0.33333 2.25 0 2.4375-2.5 5.7708l-1.25 1.25h0.0625q1.5417-0.58334 3.2917-0.58334h0.39583q4.9583 0 6.9583 4.2083 0.47917 1.375 0.47917 2.625 0 4.2708-4.3542 6.4375-0.83334 0.25-2.3125 0.375-5.0417 0-7.1458-5.7083h-0.0625v0.1875q0 7.1458 1.7083 9.4167v0.125h-4.3333l-0.125-0.125q1.7708-2.6667 1.7708-9.6042v-0.0625h-0.0625q-2.0833 5.7708-7.1875 5.7708-3.9792 0-6.1042-4.1875-0.52083-1.4167-0.52083-2.625 0-4.8542 5.125-6.5833 1.375-0.25 2.4375-0.25h0.1875q1.7917 0 3.4167 0.58334h0.0625v-0.0625q-1.75-1.4792-2.3542-2.9167-1.25-2.2917-1.25-3.9792v-0.29167q0-4.1875 4.4792-6.3542 1.4792-0.39583 2.2917-0.39583z"/>
   <path d="m320.36 867.25-10.625 16.604h10.625zm-1.1042-3.6667h5.2917v20.271h4.4375v3.5h-4.4375v7.3333h-4.1875v-7.3333h-14.042v-4.0625z"/>
  </g>
  <rect transform="rotate(-3)" x="513.64" y="573.35" width="68.212" height="106.08" rx="1.6914" ry="1.7701" fill="#fff" stroke="#000" stroke-linejoin="round" stroke-width="2.4236" style="paint-order:normal"/>
  <g transform="matrix(.64038 -.033561 .033561 .64038 358.02 42.967)" fill="#f00" style="shape-inside:url(#rect13703);white-space:pre" aria-label="♥9">
   <path d="m277.49 863.61q4.2292 0 6.6458 4.8958 0.875 1.9375 0.91667 2.9583h0.0625q0.72917-3.375 2.6458-5.6042 2.25-2.25 5.0625-2.25 4.3542 0 6.9792 4.6667 0.66667 1.7292 0.66667 3.25 0 5.2083-4.3333 9.9375l-11.021 13.229h-0.125l-11.708-14.354q-3.5-4.2708-3.5-8.8125 0-4.3958 4.1458-6.9792 1.75-0.9375 3.5625-0.9375z"/>
   <path d="m308.93 894.05v-3.8333q1.5833 0.75 3.2083 1.1458 1.625 0.39583 3.1875 0.39583 4.1667 0 6.3542-2.7917 2.2083-2.8125 2.5208-8.5208-1.2083 1.7917-3.0625 2.75-1.8542 0.95833-4.1042 0.95833-4.6667 0-7.3958-2.8125-2.7083-2.8333-2.7083-7.7292 0-4.7917 2.8333-7.6875t7.5417-2.8958q5.3958 0 8.2292 4.1458 2.8542 4.125 2.8542 12 0 7.3542-3.5 11.75-3.4792 4.375-9.375 4.375-1.5833 0-3.2083-0.3125t-3.375-0.9375zm8.375-13.188q2.8333 0 4.4792-1.9375 1.6667-1.9375 1.6667-5.3125 0-3.3542-1.6667-5.2917-1.6458-1.9583-4.4792-1.9583-2.8333 0-4.5 1.9583-1.6458 1.9375-1.6458 5.2917 0 3.375 1.6458 5.3125 1.6667 1.9375 4.5 1.9375z"/>
  </g>
  <rect transform="rotate(-2)" x="548.48" y="564.54" width="68.212" height="106.08" rx="1.6914" ry="1.7701" fill="#fff" stroke="#000" stroke-linejoin="round" stroke-width="2.4236" style="paint-order:normal"/>
  <g transform="matrix(.64087 -.02238 .02238 .64087 391.72 39.181)" style="shape-inside:url(#rect1506);white-space:pre" aria-label="♣8">
   <path d="m285.13 863.61q4.4583 0 6.5625 4.7292 0.27083 1.0833 0.33333 2.25 0 2.4375-2.5 5.7708l-1.25 1.25h0.0625q1.5417-0.58334 3.2917-0.58334h0.39583q4.9583 0 6.9583 4.2083 0.47917 1.375 0.47917 2.625 0 4.2708-4.3542 6.4375-0.83334 0.25-2.3125 0.375-5.0417 0-7.1458-5.7083h-0.0625v0.1875q0 7.1458 1.7083 9.4167v0.125h-4.3333l-0.125-0.125q1.7708-2.6667 1.7708-9.6042v-0.0625h-0.0625q-2.0833 5.7708-7.1875 5.7708-3.9792 0-6.1042-4.1875-0.52083-1.4167-0.52083-2.625 0-4.8542 5.125-6.5833 1.375-0.25 2.4375-0.25h0.1875q1.7917 0 3.4167 0.58334h0.0625v-0.0625q-1.75-1.4792-2.3542-2.9167-1.25-2.2917-1.25-3.9792v-0.29167q0-4.1875 4.4792-6.3542 1.4792-0.39583 2.2917-0.39583z"/>
   <path d="m317.8 879.92q-3 0-4.7292 1.6042-1.7083 1.6042-1.7083 4.4167t1.7083 4.4167q1.7292 1.6042 4.7292 1.6042t4.7292-1.6042q1.7292-1.625 1.7292-4.4167 0-2.8125-1.7292-4.4167-1.7083-1.6042-4.7292-1.6042zm-4.2083-1.7917q-2.7083-0.66667-4.2292-2.5208-1.5-1.8542-1.5-4.5208 0-3.7292 2.6458-5.8958 2.6667-2.1667 7.2917-2.1667 4.6458 0 7.2917 2.1667 2.6458 2.1667 2.6458 5.8958 0 2.6667-1.5208 4.5208-1.5 1.8542-4.1875 2.5208 3.0417 0.70834 4.7292 2.7708 1.7083 2.0625 1.7083 5.0417 0 4.5208-2.7708 6.9375-2.75 2.4167-7.8958 2.4167-5.1458 0-7.9167-2.4167-2.75-2.4167-2.75-6.9375 0-2.9792 1.7083-5.0417 1.7083-2.0625 4.75-2.7708zm-1.5417-6.6458q0 2.4167 1.5 3.7708 1.5208 1.3542 4.25 1.3542 2.7083 0 4.2292-1.3542 1.5417-1.3542 1.5417-3.7708 0-2.4167-1.5417-3.7708-1.5208-1.3542-4.2292-1.3542-2.7292 0-4.25 1.3542-1.5 1.3542-1.5 3.7708z"/>
  </g>
  <rect transform="rotate(-1)" x="583.16" y="554.69" width="68.212" height="106.08" rx="1.6914" ry="1.7701" fill="#fff" stroke="#000" stroke-linejoin="round" stroke-width="2.4236" style="paint-order:normal"/>
  <g transform="matrix(.64116 -.011191 .011191 .64116 425.48 35.565)" fill="#f00" style="shape-inside:url(#rect13341);white-space:pre" aria-label="♥6">
   <path d="m277.49 863.61q4.2292 0 6.6458 4.8958 0.875 1.9375 0.91667 2.9583h0.0625q0.72917-3.375 2.6458-5.6042 2.25-2.25 5.0625-2.25 4.3542 0 6.9792 4.6667 0.66667 1.7292 0.66667 3.25 0 5.2083-4.3333 9.9375l-11.021 13.229h-0.125l-11.708-14.354q-3.5-4.2708-3.5-8.8125 0-4.3958 4.1458-6.9792 1.75-0.9375 3.5625-0.9375z"/>
   <path d="m318.32 877.46q-2.8333 0-4.5 1.9375-1.6458 1.9375-1.6458 5.3125 0 3.3542 1.6458 5.3125 1.6667 1.9375 4.5 1.9375 2.8333 0 4.4792-1.9375 1.6667-1.9583 1.6667-5.3125 0-3.375-1.6667-5.3125-1.6458-1.9375-4.4792-1.9375zm8.3542-13.188v3.8333q-1.5833-0.75-3.2083-1.1458-1.6042-0.39584-3.1875-0.39584-4.1667 0-6.375 2.8125-2.1875 2.8125-2.5 8.5 1.2292-1.8125 3.0833-2.7708 1.8542-0.97917 4.0833-0.97917 4.6875 0 7.3958 2.8542 2.7292 2.8333 2.7292 7.7292 0 4.7917-2.8333 7.6875-2.8333 2.8958-7.5417 2.8958-5.3958 0-8.25-4.125-2.8542-4.1458-2.8542-12 0-7.375 3.5-11.75 3.5-4.3958 9.3958-4.3958 1.5833 0 3.1875 0.3125 1.625 0.3125 3.375 0.93751z"/>
  </g>
  <rect x="617.68" y="543.83" width="68.212" height="106.08" rx="1.6914" ry="1.7701" fill="#fff" stroke="#000" stroke-linejoin="round" stroke-width="2.4236" style="paint-order:normal"/>
  <g transform="matrix(.64126 0 0 .64126 459.31 32.12)" fill="#f00" style="shape-inside:url(#rect14991);white-space:pre" aria-label="♥J">
   <path d="m284.77 863.61q4.2292 0 6.6458 4.8958 0.875 1.9375 0.91667 2.9583h0.0625q0.72916-3.375 2.6458-5.6042 2.25-2.25 5.0625-2.25 4.3542 0 6.9792 4.6667 0.66666 1.7292 0.66666 3.25 0 5.2083-4.3333 9.9375l-11.021 13.229h-0.125l-11.708-14.354q-3.5-4.2708-3.5-8.8125 0-4.3958 4.1458-6.9792 1.75-0.9375 3.5625-0.9375z"/>
   <path d="m315.71 863.59h4.2083v28.938q0 5.625-2.1458 8.1667-2.125 2.5417-6.8542 2.5417h-1.6042v-3.5417h1.3125q2.7917 0 3.9375-1.5625 1.1458-1.5625 1.1458-5.6042z"/>
  </g>
  <rect transform="rotate(1)" x="651.99" y="531.94" width="68.212" height="106.08" rx="1.6914" ry="1.7701" fill="#fff" stroke="#000" stroke-linejoin="round" stroke-width="2.4236" style="paint-order:normal"/>
  <g transform="matrix(.64116 .011191 -.011191 .64116 493.19 28.847)" style="shape-inside:url(#rect14999);white-space:pre" aria-label="♠A">
   <path d="m284.13 863.61q1.9583 3.4792 6.4583 9.2292 4.9375 5.7917 5.0625 6.9792 0.81251 1.7708 0.81251 3.4375v0.83333q0 3.4792-3.375 5.4792-1.1042 0.45833-2.4375 0.45833-3.2083 0-5.1875-4.6042h-0.875v0.25q0 5.8958 1.7292 9.0208h-4.4792v-0.125q1.7708-3.1458 1.7708-9.0833l-0.0625-0.0625h-0.79167l-0.97917 1.8333q-1.7708 2.7708-4.4167 2.7708-3.8958 0-5.4792-4.3542l-0.1875-1.5208v-0.95833q0-3.8125 3.8958-8.0417 6.5625-8.0417 8.4167-11.479l0.0625-0.0625z"/>
   <path d="m317.8 867.73-5.7083 15.479h11.438zm-2.375-4.1458h4.7708l11.854 31.104h-4.375l-2.8333-7.9792h-14.021l-2.8333 7.9792h-4.4375z"/>
  </g>
  <rect transform="rotate(2)" x="686.15" y="521.04" width="68.212" height="106.08" rx="1.6914" ry="1.7701" fill="#fff" stroke="#000" stroke-linejoin="round" stroke-width="2.4236" style="paint-order:normal"/>
  <g transform="matrix(.64087 .02238 -.02238 .64087 527.14 27.747)" fill="#f00" style="shape-inside:url(#rect15041);white-space:pre" aria-label="♦5">
   <path d="m285.11 863.61 10.479 13.604q1.4375 1.7708 1.4375 2.0417l-11.917 15.438q-0.25-0.16666-11.958-15.438 0-0.29166 2.3125-3.1667z"/>
   <path d="m308.84 863.59h16.521v3.5417h-12.667v7.625q0.91667-0.3125 1.8333-0.45833 0.91666-0.16667 1.8333-0.16667 5.2083 0 8.25 2.8542t3.0417 7.7292q0 5.0208-3.125 7.8125-3.125 2.7708-8.8125 2.7708-1.9583 0-4-0.33333-2.0208-0.33334-4.1875-1v-4.2292q1.875 1.0208 3.875 1.5208 2 0.5 4.2292 0.5 3.6042 0 5.7083-1.8958 2.1042-1.8958 2.1042-5.1458t-2.1042-5.1458q-2.1042-1.8958-5.7083-1.8958-1.6875 0-3.375 0.375-1.6667 0.375-3.4167 1.1667z"/>
  </g>
  <rect transform="rotate(3)" x="720.13" y="509.13" width="68.212" height="106.08" rx="1.6914" ry="1.7701" fill="#fff" stroke="#000" stroke-linejoin="round" stroke-width="2.4236" style="paint-order:normal"/>
  <g transform="matrix(.64038 .033561 -.033561 .64038 561.13 26.821)" style="shape-inside:url(#rect15043);white-space:pre" aria-label="♣9">
   <path d="m285.13 863.61q4.4583 0 6.5625 4.7292 0.27083 1.0833 0.33333 2.25 0 2.4375-2.5 5.7708l-1.25 1.25h0.0625q1.5417-0.58334 3.2917-0.58334h0.39583q4.9583 0 6.9583 4.2083 0.47917 1.375 0.47917 2.625 0 4.2708-4.3542 6.4375-0.83334 0.25-2.3125 0.375-5.0417 0-7.1458-5.7083h-0.0625v0.1875q0 7.1458 1.7083 9.4167v0.125h-4.3333l-0.125-0.125q1.7708-2.6667 1.7708-9.6042v-0.0625h-0.0625q-2.0833 5.7708-7.1875 5.7708-3.9792 0-6.1042-4.1875-0.52083-1.4167-0.52083-2.625 0-4.8542 5.125-6.5833 1.375-0.25 2.4375-0.25h0.1875q1.7917 0 3.4167 0.58334h0.0625v-0.0625q-1.75-1.4792-2.3542-2.9167-1.25-2.2917-1.25-3.9792v-0.29167q0-4.1875 4.4792-6.3542 1.4792-0.39583 2.2917-0.39583z"/>
   <path d="m308.93 894.05v-3.8333q1.5833 0.75 3.2083 1.1458 1.625 0.39583 3.1875 0.39583 4.1667 0 6.3542-2.7917 2.2083-2.8125 2.5208-8.5208-1.2083 1.7917-3.0625 2.75-1.8542 0.95833-4.1042 0.95833-4.6667 0-7.3958-2.8125-2.7083-2.8333-2.7083-7.7292 0-4.7917 2.8333-7.6875t7.5417-2.8958q5.3958 0 8.2292 4.1458 2.8542 4.125 2.8542 12 0 7.3542-3.5 11.75-3.4792 4.375-9.375 4.375-1.5833 0-3.2083-0.3125t-3.375-0.9375zm8.375-13.188q2.8333 0 4.4792-1.9375 1.6667-1.9375 1.6667-5.3125 0-3.3542-1.6667-5.2917-1.6458-1.9583-4.4792-1.9583-2.8333 0-4.5 1.9583-1.6458 1.9375-1.6458 5.2917 0 3.375 1.6458 5.3125 1.6667 1.9375 4.5 1.9375z"/>
  </g>
  <rect transform="rotate(4)" x="753.91" y="496.2" width="68.212" height="106.08" rx="1.6914" ry="1.7701" fill="#fff" stroke="#000" stroke-linejoin="round" stroke-width="2.4236" style="paint-order:normal"/>
  <g transform="matrix(.6397 .044732 -.044732 .6397 595.17 26.069)" style="shape-inside:url(#rect15045);white-space:pre" aria-label="♠K">
   <path d="m284.74 863.61q1.9583 3.4792 6.4583 9.2292 4.9375 5.7917 5.0625 6.9792 0.8125 1.7708 0.8125 3.4375v0.83333q0 3.4792-3.375 5.4792-1.1042 0.45833-2.4375 0.45833-3.2083 0-5.1875-4.6042h-0.875v0.25q0 5.8958 1.7292 9.0208h-4.4792v-0.125q1.7708-3.1458 1.7708-9.0833l-0.0625-0.0625h-0.79167l-0.97917 1.8333q-1.7708 2.7708-4.4167 2.7708-3.8958 0-5.4792-4.3542l-0.1875-1.5208v-0.95833q0-3.8125 3.8958-8.0417 6.5625-8.0417 8.4167-11.479l0.0625-0.0625z"/>
   <path d="m308.01 863.59h4.2083v13.146l13.958-13.146h5.4167l-15.438 14.5 16.542 16.604h-5.5417l-14.938-14.979v14.979h-4.2083z"/>
  </g>
  <rect transform="rotate(5)" x="787.46" y="482.26" width="68.212" height="106.08" rx="1.6914" ry="1.7701" fill="#fff" stroke="#000" stroke-linejoin="round" stroke-width="2.4236" style="paint-order:normal"/>
  <g transform="matrix(.63882 .055889 -.055889 .63882 629.26 25.494)" style="shape-inside:url(#rect15047);white-space:pre" aria-label="♣3">
   <path d="m285.13 863.61q4.4583 0 6.5625 4.7292 0.27083 1.0833 0.33333 2.25 0 2.4375-2.5 5.7708l-1.25 1.25h0.0625q1.5417-0.58334 3.2917-0.58334h0.39583q4.9583 0 6.9583 4.2083 0.47917 1.375 0.47917 2.625 0 4.2708-4.3542 6.4375-0.83334 0.25-2.3125 0.375-5.0417 0-7.1458-5.7083h-0.0625v0.1875q0 7.1458 1.7083 9.4167v0.125h-4.3333l-0.125-0.125q1.7708-2.6667 1.7708-9.6042v-0.0625h-0.0625q-2.0833 5.7708-7.1875 5.7708-3.9792 0-6.1042-4.1875-0.52083-1.4167-0.52083-2.625 0-4.8542 5.125-6.5833 1.375-0.25 2.4375-0.25h0.1875q1.7917 0 3.4167 0.58334h0.0625v-0.0625q-1.75-1.4792-2.3542-2.9167-1.25-2.2917-1.25-3.9792v-0.29167q0-4.1875 4.4792-6.3542 1.4792-0.39583 2.2917-0.39583z"/>
   <path d="m321.55 877.92q3.0208 0.64583 4.7083 2.6875 1.7083 2.0417 1.7083 5.0417 0 4.6042-3.1667 7.125-3.1667 2.5208-9 2.5208-1.9583 0-4.0417-0.39583-2.0625-0.375-4.2708-1.1458v-4.0625q1.75 1.0208 3.8333 1.5417 2.0833 0.52083 4.3542 0.52083 3.9583 0 6.0208-1.5625 2.0833-1.5625 2.0833-4.5417 0-2.75-1.9375-4.2917-1.9167-1.5625-5.3542-1.5625h-3.625v-3.4583h3.7917q3.1042 0 4.75-1.2292 1.6458-1.25 1.6458-3.5833 0-2.3958-1.7083-3.6667-1.6875-1.2917-4.8542-1.2917-1.7292 0-3.7083 0.375-1.9792 0.375-4.3542 1.1667v-3.75q2.3958-0.66667 4.4792-1 2.1042-0.33334 3.9583-0.33334 4.7917 0 7.5833 2.1875 2.7917 2.1667 2.7917 5.875 0 2.5833-1.4792 4.375-1.4792 1.7708-4.2083 2.4583z"/>
  </g>
  <g transform="matrix(2.4104 -.25334 .25334 2.4104 688.21 -47.833)">
   <g transform="translate(67.331 -33.144)" stroke-width="1.5">
    <rect x="-50.092" y="85.022" width="28.144" height="43.767" rx=".69787" ry=".73034" fill="#fff" stroke="#000" stroke-linejoin="round" stroke-width="1.5" style="paint-order:normal"/>
   </g>
   <rect x="18.891" y="53.6" width="24.892" height="40.406" fill="#f00"/>
  </g>
  <g transform="matrix(2.4144 -.21123 .21123 2.4144 667.18 -47.45)">
   <g transform="translate(67.331 -33.144)" stroke-width="1.5">
    <rect x="-50.092" y="85.022" width="28.144" height="43.767" rx=".69787" ry=".73034" fill="#fff" stroke="#000" stroke-linejoin="round" stroke-width="1.5" style="paint-order:normal"/>
   </g>
   <rect x="18.891" y="53.6" width="24.892" height="40.406" fill="#f00"/>
  </g>
  <g transform="matrix(2.4177 -.16907 .16907 2.4177 646.19 -47.016)">
   <g transform="translate(67.331 -33.144)" stroke-width="1.5">
    <rect x="-50.092" y="85.022" width="28.144" height="43.767" rx=".69787" ry=".73034" fill="#fff" stroke="#000" stroke-linejoin="round" stroke-width="1.5" style="paint-order:normal"/>
   </g>
   <rect x="18.891" y="53.6" width="24.892" height="40.406" fill="#f00"/>
  </g>
  <g transform="matrix(2.4203 -.12684 .12684 2.4203 625.22 -46.528)">
   <g transform="translate(67.331 -33.144)" stroke-width="1.5">
    <rect x="-50.092" y="85.022" width="28.144" height="43.767" rx=".69787" ry=".73034" fill="#fff" stroke="#000" stroke-linejoin="round" stroke-width="1.5" style="paint-order:normal"/>
   </g>
   <rect x="18.891" y="53.6" width="24.892" height="40.406" fill="#f00"/>
  </g>
  <g transform="matrix(2.4222 -.084584 .084584 2.4222 604.28 -45.987)">
   <g transform="translate(67.331 -33.144)" stroke-width="1.5">
    <rect x="-50.092" y="85.022" width="28.144" height="43.767" rx=".69787" ry=".73034" fill="#fff" stroke="#000" stroke-linejoin="round" stroke-width="1.5" style="paint-order:normal"/>
   </g>
   <rect x="18.891" y="53.6" width="24.892" height="40.406" fill="#f00"/>
  </g>
  <g transform="matrix(2.4233 -.042299 .042299 2.4233 583.37 -47.393)">
   <g transform="translate(67.331 -33.144)" stroke-width="1.5">
    <rect x="-50.092" y="85.022" width="28.144" height="43.767" rx=".69787" ry=".73034" fill="#fff" stroke="#000" stroke-linejoin="round" stroke-width="1.5" style="paint-order:normal"/>
   </g>
   <rect x="18.891" y="53.6" width="24.892" height="40.406" fill="#f00"/>
  </g>
  <g transform="matrix(2.4236 0 0 2.4236 562.48 -48.745)">
   <g transform="translate(67.331 -33.144)" stroke-width="1.5">
    <rect x="-50.092" y="85.022" width="28.144" height="43.767" rx=".69787" ry=".73034" fill="#fff" stroke="#000" stroke-linejoin="round" stroke-width="1.5" style="paint-order:normal"/>
   </g>
   <rect x="18.891" y="53.6" width="24.892" height="40.406" fill="#f00"/>
  </g>
  <g transform="matrix(2.4233 .042299 -.042299 2.4233 541.61 -50.042)">
   <g transform="translate(67.331 -33.144)" stroke-width="1.5">
    <rect x="-50.092" y="85.022" width="28.144" height="43.767" rx=".69787" ry=".73034" fill="#fff" stroke="#000" stroke-linejoin="round" stroke-width="1.5" style="paint-order:normal"/>
   </g>
   <rect x="18.891" y="53.6" width="24.892" height="40.406" fill="#f00"/>
  </g>
  <g transform="matrix(2.4222 .084584 -.084584 2.4222 522.76 -53.284)">
   <g transform="translate(67.331 -33.144)" stroke-width="1.5">
    <rect x="-50.092" y="85.022" width="28.144" height="43.767" rx=".69787" ry=".73034" fill="#fff" stroke="#000" stroke-linejoin="round" stroke-width="1.5" style="paint-order:normal"/>
   </g>
   <rect x="18.891" y="53.6" width="24.892" height="40.406" fill="#f00"/>
  </g>
  <g transform="matrix(2.4203 .12684 -.12684 2.4203 501.94 -56.471)">
   <g transform="translate(67.331 -33.144)" stroke-width="1.5">
    <rect x="-50.092" y="85.022" width="28.144" height="43.767" rx=".69787" ry=".73034" fill="#fff" stroke="#000" stroke-linejoin="round" stroke-width="1.5" style="paint-order:normal"/>
   </g>
   <rect x="18.891" y="53.6" width="24.892" height="40.406" fill="#f00"/>
  </g>
  <g transform="matrix(2.4177 .16907 -.16907 2.4177 481.13 -59.603)">
   <g transform="translate(67.331 -33.144)" stroke-width="1.5">
    <rect x="-50.092" y="85.022" width="28.144" height="43.767" rx=".69787" ry=".73034" fill="#fff" stroke="#000" stroke-linejoin="round" stroke-width="1.5" style="paint-order:normal"/>
   </g>
   <rect x="18.891" y="53.6" width="24.892" height="40.406" fill="#f00"/>
  </g>
  <g transform="matrix(2.4144 .21123 -.21123 2.4144 460.35 -64.678)">
   <g transform="translate(67.331 -33.144)" stroke-width="1.5">
    <rect x="-50.092" y="85.022" width="28.144" height="43.767" rx=".69787" ry=".73034" fill="#fff" stroke="#000" stroke-linejoin="round" stroke-width="1.5" style="paint-order:normal"/>
   </g>
   <rect x="18.891" y="53.6" width="24.892" height="40.406" fill="#f00"/>
  </g>
  <g transform="matrix(2.4104 .25334 -.25334 2.4104 439.58 -69.697)">
   <g transform="translate(67.331 -33.144)" stroke-width="1.5">
    <rect x="-50.092" y="85.022" width="28.144" height="43.767" rx=".69787" ry=".73034" fill="#fff" stroke="#000" stroke-linejoin="round" stroke-width="1.5" style="paint-order:normal"/>
   </g>
   <rect x="18.891" y="53.6" width="24.892" height="40.406" fill="#f00"/>
  </g>
  <g transform="matrix(-.25334 -2.4104 2.4104 -.25334 193.15 311.06)">
   <g transform="translate(67.331 -33.144)" stroke-width="1.5">
    <rect x="-50.092" y="85.022" width="28.144" height="43.767" rx=".69787" ry=".73034" fill="#fff" stroke="#000" stroke-linejoin="round" stroke-width="1.5" style="paint-order:normal"/>
   </g>
   <rect x="18.891" y="53.6" width="24.892" height="40.406" fill="#f00"/>
  </g>
  <g transform="matrix(-.21123 -2.4144 2.4144 -.21123 193.53 332.08)">
   <g transform="translate(67.331 -33.144)" stroke-width="1.5">
    <rect x="-50.092" y="85.022" width="28.144" height="43.767" rx=".69787" ry=".73034" fill="#fff" stroke="#000" stroke-linejoin="round" stroke-width="1.5" style="paint-order:normal"/>
   </g>
   <rect x="18.891" y="53.6" width="24.892" height="40.406" fill="#f00"/>
  </g>
  <g transform="matrix(-.16907 -2.4177 2.4177 -.16907 193.97 353.08)">
   <g transform="translate(67.331 -33.144)" stroke-width="1.5">
    <rect x="-50.092" y="85.022" width="28.144" height="43.767" rx=".69787" ry=".73034" fill="#fff" stroke="#000" stroke-linejoin="round" stroke-width="1.5" style="paint-order:normal"/>
   </g>
   <rect x="18.891" y="53.6" width="24.892" height="40.406" fill="#f00"/>
  </g>
  <g transform="matrix(-.12684 -2.4203 2.4203 -.12684 194.45 374.04)">
   <g transform="translate(67.331 -33.144)" stroke-width="1.5">
    <rect x="-50.092" y="85.022" width="28.144" height="43.767" rx=".69787" ry=".73034" fill="#fff" stroke="#000" stroke-linejoin="round" stroke-width="1.5" style="paint-order:normal"/>
   </g>
   <rect x="18.891" y="53.6" width="24.892" height="40.406" fill="#f00"/>
  </g>
  <g transform="matrix(-.084584 -2.4222 2.4222 -.084584 194.99 394.98)">
   <g transform="translate(67.331 -33.144)" stroke-width="1.5">
    <rect x="-50.092" y="85.022" width="28.144" height="43.767" rx=".69787" ry=".73034" fill="#fff" stroke="#000" stroke-linejoin="round" stroke-width="1.5" style="paint-order:normal"/>
   </g>
   <rect x="18.891" y="53.6" width="24.892" height="40.406" fill="#f00"/>
  </g>
  <g transform="matrix(-.042299 -2.4233 2.4233 -.042299 193.59 415.9)">
   <g transform="translate(67.331 -33.144)" stroke-width="1.5">
    <rect x="-50.092" y="85.022" width="28.144" height="43.767" rx=".69787" ry=".73034" fill="#fff" stroke="#000" stroke-linejoin="round" stroke-width="1.5" style="paint-order:normal"/>
   </g>
   <rect x="18.891" y="53.6" width="24.892" height="40.406" fill="#f00"/>
  </g>
  <g transform="matrix(0 -2.4236 2.4236 0 192.24 436.79)">
   <g transform="translate(67.331 -33.144)" stroke-width="1.5">
    <rect x="-50.092" y="85.022" width="28.144" height="43.767" rx=".69787" ry=".73034" fill="#fff" stroke="#000" stroke-linejoin="round" stroke-width="1.5" style="paint-order:normal"/>
   </g>
   <rect x="18.891" y="53.6" width="24.892" height="40.406" fill="#f00"/>
  </g>
  <g transform="matrix(.042299 -2.4233 2.4233 .042299 190.94 457.66)">
   <g transform="translate(67.331 -33.144)" stroke-width="1.5">
    <rect x="-50.092" y="85.022" width="28.144" height="43.767" rx=".69787" ry=".73034" fill="#fff" stroke="#000" stroke-linejoin="round" stroke-width="1.5" style="paint-order:normal"/>
   </g>
   <rect x="18.891" y="53.6" width="24.892" height="40.406" fill="#f00"/>
  </g>
  <g transform="matrix(.084584 -2.4222 2.4222 .084584 187.7 476.51)">
   <g transform="translate(67.331 -33.144)" stroke-width="1.5">
    <rect x="-50.092" y="85.022" width="28.144" height="43.767" rx=".69787" ry=".73034" fill="#fff" stroke="#000" stroke-linejoin="round" stroke-width="1.5" style="paint-order:normal"/>
   </g>
   <rect x="18.891" y="53.6" width="24.892" height="40.406" fill="#f00"/>
  </g>
  <g transform="matrix(.12684 -2.4203 2.4203 .12684 184.51 497.33)">
   <g transform="translate(67.331 -33.144)" stroke-width="1.5">
    <rect x="-50.092" y="85.022" width="28.144" height="43.767" rx=".69787" ry=".73034" fill="#fff" stroke="#000" stroke-linejoin="round" stroke-width="1.5" style="paint-order:normal"/>
   </g>
   <rect x="18.891" y="53.6" width="24.892" height="40.406" fill="#f00"/>
  </g>
  <g transform="matrix(.16907 -2.4177 2.4177 .16907 181.38 518.14)">
   <g transform="translate(67.331 -33.144)" stroke-width="1.5">
    <rect x="-50.092" y="85.022" width="28.144" height="43.767" rx=".69787" ry=".73034" fill="#fff" stroke="#000" stroke-linejoin="round" stroke-width="1.5" style="paint-order:normal"/>
   </g>
   <rect x="18.891" y="53.6" width="24.892" height="40.406" fill="#f00"/>
  </g>
  <g transform="matrix(.21123 -2.4144 2.4144 .21123 176.3 538.92)">
   <g transform="translate(67.331 -33.144)" stroke-width="1.5">
    <rect x="-50.092" y="85.022" width="28.144" height="43.767" rx=".69787" ry=".73034" fill="#fff" stroke="#000" stroke-linejoin="round" stroke-width="1.5" style="paint-order:normal"/>
   </g>
   <rect x="18.891" y="53.6" width="24.892" height="40.406" fill="#f00"/>
  </g>
  <g transform="matrix(.25334 -2.4104 2.4104 .25334 171.28 559.69)">
   <g transform="translate(67.331 -33.144)" stroke-width="1.5">
    <rect x="-50.092" y="85.022" width="28.144" height="43.767" rx=".69787" ry=".73034" fill="#fff" stroke="#000" stroke-linejoin="round" stroke-width="1.5" style="paint-order:normal"/>
   </g>
   <rect x="18.891" y="53.6" width="24.892" height="40.406" fill="#f00"/>
  </g>
  <g transform="matrix(.25334 2.4104 -2.4104 .25334 1085.6 408.75)">
   <g transform="translate(67.331 -33.144)" stroke-width="1.5">
    <rect x="-50.092" y="85.022" width="28.144" height="43.767" rx=".69787" ry=".73034" fill="#fff" stroke="#000" stroke-linejoin="round" stroke-width="1.5" style="paint-order:normal"/>
   </g>
   <rect x="18.891" y="53.6" width="24.892" height="40.406" fill="#f00"/>
  </g>
  <g transform="matrix(.21123 2.4144 -2.4144 .21123 1085.2 387.73)">
   <g transform="translate(67.331 -33.144)" stroke-width="1.5">
    <rect x="-50.092" y="85.022" width="28.144" height="43.767" rx=".69787" ry=".73034" fill="#fff" stroke="#000" stroke-linejoin="round" stroke-width="1.5" style="paint-order:normal"/>
   </g>
   <rect x="18.891" y="53.6" width="24.892" height="40.406" fill="#f00"/>
  </g>
  <g transform="matrix(.16907 2.4177 -2.4177 .16907 1084.8 366.73)">
   <g transform="translate(67.331 -33.144)" stroke-width="1.5">
    <rect x="-50.092" y="85.022" width="28.144" height="43.767" rx=".69787" ry=".73034" fill="#fff" stroke="#000" stroke-linejoin="round" stroke-width="1.5" style="paint-order:normal"/>
   </g>
   <rect x="18.891" y="53.6" width="24.892" height="40.406" fill="#f00"/>
  </g>
  <g transform="matrix(.12684 2.4203 -2.4203 .12684 1084.3 345.77)">
   <g transform="translate(67.331 -33.144)" stroke-width="1.5">
    <rect x="-50.092" y="85.022" width="28.144" height="43.767" rx=".69787" ry=".73034" fill="#fff" stroke="#000" stroke-linejoin="round" stroke-width="1.5" style="paint-order:normal"/>
   </g>
   <rect x="18.891" y="53.6" width="24.892" height="40.406" fill="#f00"/>
  </g>
  <g transform="matrix(.084584 2.4222 -2.4222 .084584 1083.7 324.83)">
   <g transform="translate(67.331 -33.144)" stroke-width="1.5">
    <rect x="-50.092" y="85.022" width="28.144" height="43.767" rx=".69787" ry=".73034" fill="#fff" stroke="#000" stroke-linejoin="round" stroke-width="1.5" style="paint-order:normal"/>
   </g>
   <rect x="18.891" y="53.6" width="24.892" height="40.406" fill="#f00"/>
  </g>
  <g transform="matrix(.042299 2.4233 -2.4233 .042299 1085.1 303.91)">
   <g transform="translate(67.331 -33.144)" stroke-width="1.5">
    <rect x="-50.092" y="85.022" width="28.144" height="43.767" rx=".69787" ry=".73034" fill="#fff" stroke="#000" stroke-linejoin="round" stroke-width="1.5" style="paint-order:normal"/>
   </g>
   <rect x="18.891" y="53.6" width="24.892" height="40.406" fill="#f00"/>
  </g>
  <g transform="matrix(0 2.4236 -2.4236 0 1086.5 283.02)">
   <g transform="translate(67.331 -33.144)" stroke-width="1.5">
    <rect x="-50.092" y="85.022" width="28.144" height="43.767" rx=".69787" ry=".73034" fill="#fff" stroke="#000" stroke-linejoin="round" stroke-width="1.5" style="paint-order:normal"/>
   </g>
   <rect x="18.891" y="53.6" width="24.892" height="40.406" fill="#f00"/>
  </g>
  <g transform="matrix(-.042299 2.4233 -2.4233 -.042299 1087.8 262.15)">
   <g transform="translate(67.331 -33.144)" stroke-width="1.5">
    <rect x="-50.092" y="85.022" width="28.144" height="43.767" rx=".69787" ry=".73034" fill="#fff" stroke="#000" stroke-linejoin="round" stroke-width="1.5" style="paint-order:normal"/>
   </g>
   <rect x="18.891" y="53.6" width="24.892" height="40.406" fill="#f00"/>
  </g>
  <g transform="matrix(-.084584 2.4222 -2.4222 -.084584 1091 243.3)">
   <g transform="translate(67.331 -33.144)" stroke-width="1.5">
    <rect x="-50.092" y="85.022" width="28.144" height="43.767" rx=".69787" ry=".73034" fill="#fff" stroke="#000" stroke-linejoin="round" stroke-width="1.5" style="paint-order:normal"/>
   </g>
   <rect x="18.891" y="53.6" width="24.892" height="40.406" fill="#f00"/>
  </g>
  <g transform="matrix(-.12684 2.4203 -2.4203 -.12684 1094.2 222.48)">
   <g transform="translate(67.331 -33.144)" stroke-width="1.5">
    <rect x="-50.092" y="85.022" width="28.144" height="43.767" rx=".69787" ry=".73034" fill="#fff" stroke="#000" stroke-linejoin="round" stroke-width="1.5" style="paint-order:normal"/>
   </g>
   <rect x="18.891" y="53.6" width="24.892" height="40.406" fill="#f00"/>
  </g>
  <g transform="matrix(-.16907 2.4177 -2.4177 -.16907 1097.3 201.67)">
   <g transform="translate(67.331 -33.144)" stroke-width="1.5">
    <rect x="-50.092" y="85.022" width="28.144" height="43.767" rx=".69787" ry=".73034" fill="#fff" stroke="#000" stroke-linejoin="round" stroke-width="1.5" style="paint-order:normal"/>
   </g>
   <rect x="18.891" y="53.6" width="24.892" height="40.406" fill="#f00"/>
  </g>
  <g transform="matrix(-.21123 2.4144 -2.4144 -.21123 1102.4 180.89)">
   <g transform="translate(67.331 -33.144)" stroke-width="1.5">
    <rect x="-50.092" y="85.022" width="28.144" height="43.767" rx=".69787" ry=".73034" fill="#fff" stroke="#000" stroke-linejoin="round" stroke-width="1.5" style="paint-order:normal"/>
   </g>
   <rect x="18.891" y="53.6" width="24.892" height="40.406" fill="#f00"/>
  </g>
  <g transform="matrix(-.25334 2.4104 -2.4104 -.25334 1107.4 160.12)">
   <g transform="translate(67.331 -33.144)" stroke-width="1.5">
    <rect x="-50.092" y="85.022" width="28.144" height="43.767" rx=".69787" ry=".73034" fill="#fff" stroke="#000" stroke-linejoin="round" stroke-width="1.5" style="paint-order:normal"/>
   </g>
   <rect x="18.891" y="53.6" width="24.892" height="40.406" fill="#f00"/>
  </g>
 </g>
</svg>
