<!-- Created with Inkscape (http://www.inkscape.org/) -->
<svg width="477.87" height="639.09" version="1.1" viewBox="0 0 477.87 639.09" xmlns="http://www.w3.org/2000/svg">
 <g transform="translate(-401.06 -40.457)">
  <g transform="matrix(-3.3565 .29365 -.29365 -3.3565 949.71 358.75)">
   <g transform="translate(67.331 -33.144)" stroke-width="1.5">
    <rect x="-50.092" y="85.022" width="28.144" height="43.767" rx=".69787" ry=".73034" fill="#fff" stroke="#000" stroke-linejoin="round" stroke-width="1.5" style="paint-order:normal"/>
   </g>
   <rect x="18.891" y="53.6" width="24.892" height="40.406" fill="#f00"/>
  </g>
  <g transform="matrix(-3.3661 .14697 -.14697 -3.3661 847.8 370.04)">
   <g transform="translate(67.331 -33.144)" stroke-width="1.5">
    <rect x="-50.092" y="85.022" width="28.144" height="43.767" rx=".69787" ry=".73034" fill="#fff" stroke="#000" stroke-linejoin="round" stroke-width="1.5" style="paint-order:normal"/>
   </g>
   <rect x="18.891" y="53.6" width="24.892" height="40.406" fill="#f00"/>
  </g>
  <g transform="matrix(3.3693 0 0 3.3693 467.04 107.91)">
   <g transform="translate(67.331 -33.144)" stroke-width="1.5">
    <rect x="-50.092" y="85.022" width="28.144" height="43.767" rx=".69787" ry=".73034" fill="#fff" stroke="#000" stroke-linejoin="round" stroke-width="1.5" style="paint-order:normal"/>
   </g>
   <rect x="18.891" y="53.6" width="24.892" height="40.406" fill="#f00"/>
  </g>
  <g transform="matrix(3.3693 0 0 3.3693 474.17 111.48)">
   <g transform="translate(67.331 -33.144)" stroke-width="1.5">
    <rect x="-50.092" y="85.022" width="28.144" height="43.767" rx=".69787" ry=".73034" fill="#fff" stroke="#000" stroke-linejoin="round" stroke-width="1.5" style="paint-order:normal"/>
   </g>
   <rect x="18.891" y="53.6" width="24.892" height="40.406" fill="#f00"/>
  </g>
  <g transform="matrix(3.3693 0 0 3.3693 481.3 115.04)">
   <g transform="translate(67.331 -33.144)" stroke-width="1.5">
    <rect x="-50.092" y="85.022" width="28.144" height="43.767" rx=".69787" ry=".73034" fill="#fff" stroke="#000" stroke-linejoin="round" stroke-width="1.5" style="paint-order:normal"/>
   </g>
   <rect x="18.891" y="53.6" width="24.892" height="40.406" fill="#f00"/>
  </g>
  <rect x="660.89" y="285.76" width="94.826" height="147.46" rx="2.3513" ry="2.4607" fill="#fff" stroke="#000" stroke-linejoin="round" stroke-width="3.3693" style="paint-order:normal"/>
  <g transform="matrix(.89145 0 0 .89145 440.74 -425.6)" fill="#f00" style="shape-inside:url(#rect8845);white-space:pre" aria-label="♦4">
   <path d="m285.11 863.61 10.479 13.604q1.4375 1.7708 1.4375 2.0417l-11.917 15.438q-0.25-0.16666-11.958-15.438 0-0.29166 2.3125-3.1667z"/>
   <path d="m320.36 867.25-10.625 16.604h10.625zm-1.1042-3.6667h5.2917v20.271h4.4375v3.5h-4.4375v7.3333h-4.1875v-7.3333h-14.042v-4.0625z"/>
  </g>
  <g transform="matrix(-3.3693 0 0 -3.3693 745.49 376.88)">
   <g transform="translate(67.331 -33.144)" stroke-width="1.5">
    <rect x="-50.092" y="85.022" width="28.144" height="43.767" rx=".69787" ry=".73034" fill="#fff" stroke="#000" stroke-linejoin="round" stroke-width="1.5" style="paint-order:normal"/>
   </g>
   <rect x="18.891" y="53.6" width="24.892" height="40.406" fill="#f00"/>
  </g>
  <g transform="matrix(-3.3661 -.14697 .14697 -3.3661 642.99 379.25)">
   <g transform="translate(67.331 -33.144)" stroke-width="1.5">
    <rect x="-50.092" y="85.022" width="28.144" height="43.767" rx=".69787" ry=".73034" fill="#fff" stroke="#000" stroke-linejoin="round" stroke-width="1.5" style="paint-order:normal"/>
   </g>
   <rect x="18.891" y="53.6" width="24.892" height="40.406" fill="#f00"/>
  </g>
  <g transform="matrix(-3.3565 -.29365 .29365 -3.3565 540.48 377.14)">
   <g transform="translate(67.331 -33.144)" stroke-width="1.5">
    <rect x="-50.092" y="85.022" width="28.144" height="43.767" rx=".69787" ry=".73034" fill="#fff" stroke="#000" stroke-linejoin="round" stroke-width="1.5" style="paint-order:normal"/>
   </g>
   <rect x="18.891" y="53.6" width="24.892" height="40.406" fill="#f00"/>
  </g>
  <rect transform="rotate(-5)" x="355.56" y="564.29" width="94.826" height="147.46" rx="2.3513" ry="2.4607" fill="#fff" stroke="#000" stroke-linejoin="round" stroke-width="3.3693" style="paint-order:normal"/>
  <g transform="matrix(.88806 -.077695 .077695 .88806 122.07 -158.31)" style="shape-inside:url(#rect1514);white-space:pre" aria-label="♣5">
   <path d="m285.13 863.61q4.4583 0 6.5625 4.7292 0.27083 1.0833 0.33333 2.25 0 2.4375-2.5 5.7708l-1.25 1.25h0.0625q1.5417-0.58334 3.2917-0.58334h0.39583q4.9583 0 6.9583 4.2083 0.47917 1.375 0.47917 2.625 0 4.2708-4.3542 6.4375-0.83334 0.25-2.3125 0.375-5.0417 0-7.1458-5.7083h-0.0625v0.1875q0 7.1458 1.7083 9.4167v0.125h-4.3333l-0.125-0.125q1.7708-2.6667 1.7708-9.6042v-0.0625h-0.0625q-2.0833 5.7708-7.1875 5.7708-3.9792 0-6.1042-4.1875-0.52083-1.4167-0.52083-2.625 0-4.8542 5.125-6.5833 1.375-0.25 2.4375-0.25h0.1875q1.7917 0 3.4167 0.58334h0.0625v-0.0625q-1.75-1.4792-2.3542-2.9167-1.25-2.2917-1.25-3.9792v-0.29167q0-4.1875 4.4792-6.3542 1.4792-0.39583 2.2917-0.39583z"/>
   <path d="m308.84 863.59h16.521v3.5417h-12.667v7.625q0.91667-0.3125 1.8333-0.45833 0.91666-0.16667 1.8333-0.16667 5.2083 0 8.25 2.8542t3.0417 7.7292q0 5.0208-3.125 7.8125-3.125 2.7708-8.8125 2.7708-1.9583 0-4-0.33333-2.0208-0.33334-4.1875-1v-4.2292q1.875 1.0208 3.875 1.5208 2 0.5 4.2292 0.5 3.6042 0 5.7083-1.8958 2.1042-1.8958 2.1042-5.1458t-2.1042-5.1458q-2.1042-1.8958-5.7083-1.8958-1.6875 0-3.375 0.375-1.6667 0.375-3.4167 1.1667z"/>
  </g>
  <rect transform="rotate(-2.5)" x="474.57" y="544.11" width="94.826" height="147.46" rx="2.3513" ry="2.4607" fill="#fff" stroke="#000" stroke-linejoin="round" stroke-width="3.3693" style="paint-order:normal"/>
  <g transform="matrix(.89061 -.038885 .038885 .89061 246.88 -178.19)" fill="#f00" style="shape-inside:url(#rect1506);white-space:pre" aria-label="♥8">
   <path d="m277.49 863.61q4.2292 0 6.6458 4.8958 0.875 1.9375 0.91667 2.9583h0.0625q0.72917-3.375 2.6458-5.6042 2.25-2.25 5.0625-2.25 4.3542 0 6.9792 4.6667 0.66667 1.7292 0.66667 3.25 0 5.2083-4.3333 9.9375l-11.021 13.229h-0.125l-11.708-14.354q-3.5-4.2708-3.5-8.8125 0-4.3958 4.1458-6.9792 1.75-0.9375 3.5625-0.9375z"/>
   <path d="m317.8 879.92q-3 0-4.7292 1.6042-1.7083 1.6042-1.7083 4.4167t1.7083 4.4167q1.7292 1.6042 4.7292 1.6042t4.7292-1.6042q1.7292-1.625 1.7292-4.4167 0-2.8125-1.7292-4.4167-1.7083-1.6042-4.7292-1.6042zm-4.2083-1.7917q-2.7083-0.66667-4.2292-2.5208-1.5-1.8542-1.5-4.5208 0-3.7292 2.6458-5.8958 2.6667-2.1667 7.2917-2.1667 4.6458 0 7.2917 2.1667 2.6458 2.1667 2.6458 5.8958 0 2.6667-1.5208 4.5208-1.5 1.8542-4.1875 2.5208 3.0417 0.70834 4.7292 2.7708 1.7083 2.0625 1.7083 5.0417 0 4.5208-2.7708 6.9375-2.75 2.4167-7.8958 2.4167-5.1458 0-7.9167-2.4167-2.75-2.4167-2.75-6.9375 0-2.9792 1.7083-5.0417 1.7083-2.0625 4.75-2.7708zm-1.5417-6.6458q0 2.4167 1.5 3.7708 1.5208 1.3542 4.25 1.3542 2.7083 0 4.2292-1.3542 1.5417-1.3542 1.5417-3.7708 0-2.4167-1.5417-3.7708-1.5208-1.3542-4.2292-1.3542-2.7292 0-4.25 1.3542-1.5 1.3542-1.5 3.7708z"/>
  </g>
  <rect x="592.59" y="518.75" width="94.826" height="147.46" rx="2.3513" ry="2.4607" fill="#fff" stroke="#000" stroke-linejoin="round" stroke-width="3.3693" style="paint-order:normal"/>
  <g transform="matrix(.89145 0 0 .89145 372.43 -192.61)" style="shape-inside:url(#rect8845-7);white-space:pre" aria-label="♠A">
   <path d="m284.13 863.61q1.9583 3.4792 6.4583 9.2292 4.9375 5.7917 5.0625 6.9792 0.81251 1.7708 0.81251 3.4375v0.83333q0 3.4792-3.375 5.4792-1.1042 0.45833-2.4375 0.45833-3.2083 0-5.1875-4.6042h-0.875v0.25q0 5.8958 1.7292 9.0208h-4.4792v-0.125q1.7708-3.1458 1.7708-9.0833l-0.0625-0.0625h-0.79167l-0.97917 1.8333q-1.7708 2.7708-4.4167 2.7708-3.8958 0-5.4792-4.3542l-0.1875-1.5208v-0.95833q0-3.8125 3.8958-8.0417 6.5625-8.0417 8.4167-11.479l0.0625-0.0625z"/>
   <path d="m317.8 867.73-5.7083 15.479h11.438zm-2.375-4.1458h4.7708l11.854 31.104h-4.375l-2.8333-7.9792h-14.021l-2.8333 7.9792h-4.4375z"/>
  </g>
  <rect transform="rotate(2.5)" x="709.39" y="488.27" width="94.826" height="147.46" rx="2.3513" ry="2.4607" fill="#fff" stroke="#000" stroke-linejoin="round" stroke-width="3.3693" style="paint-order:normal"/>
  <g transform="matrix(.89061 .038885 -.038885 .89061 498.5 -201.53)" fill="#f00" style="shape-inside:url(#rect1490);white-space:pre" aria-label="♥K">
   <path d="m277.07 863.61q4.2292 0 6.6458 4.8958 0.875 1.9375 0.91666 2.9583h0.0625q0.72917-3.375 2.6458-5.6042 2.25-2.25 5.0625-2.25 4.3542 0 6.9792 4.6667 0.66667 1.7292 0.66667 3.25 0 5.2083-4.3333 9.9375l-11.021 13.229h-0.125l-11.708-14.354q-3.5-4.2708-3.5-8.8125 0-4.3958 4.1458-6.9792 1.75-0.9375 3.5625-0.9375z"/>
   <path d="m308.01 863.59h4.2083v13.146l13.958-13.146h5.4167l-15.438 14.5 16.542 16.604h-5.5417l-14.938-14.979v14.979h-4.2083z"/>
  </g>
  <rect transform="rotate(5)" x="824.75" y="452.73" width="94.826" height="147.46" rx="2.3513" ry="2.4607" fill="#fff" stroke="#000" stroke-linejoin="round" stroke-width="3.3693" style="paint-order:normal"/>
  <g transform="matrix(.88806 .077695 -.077695 .88806 624.83 -204.95)" fill="#f00" style="shape-inside:url(#rect1498);white-space:pre" aria-label="♦7">
   <path d="m285.11 863.61 10.479 13.604q1.4375 1.7708 1.4375 2.0417l-11.917 15.438q-0.25-0.16666-11.958-15.438 0-0.29166 2.3125-3.1667z"/>
   <path d="m307.74 863.59h20v1.7917l-11.292 29.313h-4.3958l10.625-27.563h-14.938z"/>
  </g>
 </g>
</svg>
